<svg version="1.1" xmlns="http://www.w3.org/2000/svg" width="134px" height="134px" viewBox="0 0 134 134"  preserveAspectRatio="xMinYMin meet"><rect width="100%" height="100%" fill="white" cx="0" cy="0"/><path d="M1,1l4,0 0,4 -4,0 0,-4z M5,1l4,0 0,4 -4,0 0,-4z M9,1l4,0 0,4 -4,0 0,-4z M13,1l4,0 0,4 -4,0 0,-4z M17,1l4,0 0,4 -4,0 0,-4z M21,1l4,0 0,4 -4,0 0,-4z M25,1l4,0 0,4 -4,0 0,-4z M41,1l4,0 0,4 -4,0 0,-4z M57,1l4,0 0,4 -4,0 0,-4z M61,1l4,0 0,4 -4,0 0,-4z M65,1l4,0 0,4 -4,0 0,-4z M73,1l4,0 0,4 -4,0 0,-4z M81,1l4,0 0,4 -4,0 0,-4z M85,1l4,0 0,4 -4,0 0,-4z M105,1l4,0 0,4 -4,0 0,-4z M109,1l4,0 0,4 -4,0 0,-4z M113,1l4,0 0,4 -4,0 0,-4z M117,1l4,0 0,4 -4,0 0,-4z M121,1l4,0 0,4 -4,0 0,-4z M125,1l4,0 0,4 -4,0 0,-4z M129,1l4,0 0,4 -4,0 0,-4z M1,5l4,0 0,4 -4,0 0,-4z M25,5l4,0 0,4 -4,0 0,-4z M41,5l4,0 0,4 -4,0 0,-4z M49,5l4,0 0,4 -4,0 0,-4z M61,5l4,0 0,4 -4,0 0,-4z M65,5l4,0 0,4 -4,0 0,-4z M73,5l4,0 0,4 -4,0 0,-4z M81,5l4,0 0,4 -4,0 0,-4z M85,5l4,0 0,4 -4,0 0,-4z M97,5l4,0 0,4 -4,0 0,-4z M105,5l4,0 0,4 -4,0 0,-4z M129,5l4,0 0,4 -4,0 0,-4z M1,9l4,0 0,4 -4,0 0,-4z M9,9l4,0 0,4 -4,0 0,-4z M13,9l4,0 0,4 -4,0 0,-4z M17,9l4,0 0,4 -4,0 0,-4z M25,9l4,0 0,4 -4,0 0,-4z M33,9l4,0 0,4 -4,0 0,-4z M49,9l4,0 0,4 -4,0 0,-4z M57,9l4,0 0,4 -4,0 0,-4z M61,9l4,0 0,4 -4,0 0,-4z M77,9l4,0 0,4 -4,0 0,-4z M81,9l4,0 0,4 -4,0 0,-4z M85,9l4,0 0,4 -4,0 0,-4z M89,9l4,0 0,4 -4,0 0,-4z M93,9l4,0 0,4 -4,0 0,-4z M105,9l4,0 0,4 -4,0 0,-4z M113,9l4,0 0,4 -4,0 0,-4z M117,9l4,0 0,4 -4,0 0,-4z M121,9l4,0 0,4 -4,0 0,-4z M129,9l4,0 0,4 -4,0 0,-4z M1,13l4,0 0,4 -4,0 0,-4z M9,13l4,0 0,4 -4,0 0,-4z M13,13l4,0 0,4 -4,0 0,-4z M17,13l4,0 0,4 -4,0 0,-4z M25,13l4,0 0,4 -4,0 0,-4z M33,13l4,0 0,4 -4,0 0,-4z M37,13l4,0 0,4 -4,0 0,-4z M41,13l4,0 0,4 -4,0 0,-4z M49,13l4,0 0,4 -4,0 0,-4z M61,13l4,0 0,4 -4,0 0,-4z M73,13l4,0 0,4 -4,0 0,-4z M77,13l4,0 0,4 -4,0 0,-4z M85,13l4,0 0,4 -4,0 0,-4z M97,13l4,0 0,4 -4,0 0,-4z M105,13l4,0 0,4 -4,0 0,-4z M113,13l4,0 0,4 -4,0 0,-4z M117,13l4,0 0,4 -4,0 0,-4z M121,13l4,0 0,4 -4,0 0,-4z M129,13l4,0 0,4 -4,0 0,-4z M1,17l4,0 0,4 -4,0 0,-4z M9,17l4,0 0,4 -4,0 0,-4z M13,17l4,0 0,4 -4,0 0,-4z M17,17l4,0 0,4 -4,0 0,-4z M25,17l4,0 0,4 -4,0 0,-4z M33,17l4,0 0,4 -4,0 0,-4z M45,17l4,0 0,4 -4,0 0,-4z M49,17l4,0 0,4 -4,0 0,-4z M57,17l4,0 0,4 -4,0 0,-4z M61,17l4,0 0,4 -4,0 0,-4z M65,17l4,0 0,4 -4,0 0,-4z M69,17l4,0 0,4 -4,0 0,-4z M81,17l4,0 0,4 -4,0 0,-4z M85,17l4,0 0,4 -4,0 0,-4z M89,17l4,0 0,4 -4,0 0,-4z M105,17l4,0 0,4 -4,0 0,-4z M113,17l4,0 0,4 -4,0 0,-4z M117,17l4,0 0,4 -4,0 0,-4z M121,17l4,0 0,4 -4,0 0,-4z M129,17l4,0 0,4 -4,0 0,-4z M1,21l4,0 0,4 -4,0 0,-4z M25,21l4,0 0,4 -4,0 0,-4z M33,21l4,0 0,4 -4,0 0,-4z M37,21l4,0 0,4 -4,0 0,-4z M49,21l4,0 0,4 -4,0 0,-4z M57,21l4,0 0,4 -4,0 0,-4z M77,21l4,0 0,4 -4,0 0,-4z M89,21l4,0 0,4 -4,0 0,-4z M93,21l4,0 0,4 -4,0 0,-4z M97,21l4,0 0,4 -4,0 0,-4z M105,21l4,0 0,4 -4,0 0,-4z M129,21l4,0 0,4 -4,0 0,-4z M1,25l4,0 0,4 -4,0 0,-4z M5,25l4,0 0,4 -4,0 0,-4z M9,25l4,0 0,4 -4,0 0,-4z M13,25l4,0 0,4 -4,0 0,-4z M17,25l4,0 0,4 -4,0 0,-4z M21,25l4,0 0,4 -4,0 0,-4z M25,25l4,0 0,4 -4,0 0,-4z M33,25l4,0 0,4 -4,0 0,-4z M41,25l4,0 0,4 -4,0 0,-4z M49,25l4,0 0,4 -4,0 0,-4z M57,25l4,0 0,4 -4,0 0,-4z M65,25l4,0 0,4 -4,0 0,-4z M73,25l4,0 0,4 -4,0 0,-4z M81,25l4,0 0,4 -4,0 0,-4z M89,25l4,0 0,4 -4,0 0,-4z M97,25l4,0 0,4 -4,0 0,-4z M105,25l4,0 0,4 -4,0 0,-4z M109,25l4,0 0,4 -4,0 0,-4z M113,25l4,0 0,4 -4,0 0,-4z M117,25l4,0 0,4 -4,0 0,-4z M121,25l4,0 0,4 -4,0 0,-4z M125,25l4,0 0,4 -4,0 0,-4z M129,25l4,0 0,4 -4,0 0,-4z M33,29l4,0 0,4 -4,0 0,-4z M65,29l4,0 0,4 -4,0 0,-4z M77,29l4,0 0,4 -4,0 0,-4z M81,29l4,0 0,4 -4,0 0,-4z M85,29l4,0 0,4 -4,0 0,-4z M93,29l4,0 0,4 -4,0 0,-4z M1,33l4,0 0,4 -4,0 0,-4z M9,33l4,0 0,4 -4,0 0,-4z M13,33l4,0 0,4 -4,0 0,-4z M17,33l4,0 0,4 -4,0 0,-4z M21,33l4,0 0,4 -4,0 0,-4z M25,33l4,0 0,4 -4,0 0,-4z M37,33l4,0 0,4 -4,0 0,-4z M41,33l4,0 0,4 -4,0 0,-4z M57,33l4,0 0,4 -4,0 0,-4z M69,33l4,0 0,4 -4,0 0,-4z M77,33l4,0 0,4 -4,0 0,-4z M85,33l4,0 0,4 -4,0 0,-4z M89,33l4,0 0,4 -4,0 0,-4z M93,33l4,0 0,4 -4,0 0,-4z M97,33l4,0 0,4 -4,0 0,-4z M105,33l4,0 0,4 -4,0 0,-4z M109,33l4,0 0,4 -4,0 0,-4z M113,33l4,0 0,4 -4,0 0,-4z M117,33l4,0 0,4 -4,0 0,-4z M121,33l4,0 0,4 -4,0 0,-4z M5,37l4,0 0,4 -4,0 0,-4z M9,37l4,0 0,4 -4,0 0,-4z M29,37l4,0 0,4 -4,0 0,-4z M53,37l4,0 0,4 -4,0 0,-4z M61,37l4,0 0,4 -4,0 0,-4z M65,37l4,0 0,4 -4,0 0,-4z M69,37l4,0 0,4 -4,0 0,-4z M81,37l4,0 0,4 -4,0 0,-4z M121,37l4,0 0,4 -4,0 0,-4z M125,37l4,0 0,4 -4,0 0,-4z M1,41l4,0 0,4 -4,0 0,-4z M9,41l4,0 0,4 -4,0 0,-4z M17,41l4,0 0,4 -4,0 0,-4z M25,41l4,0 0,4 -4,0 0,-4z M49,41l4,0 0,4 -4,0 0,-4z M53,41l4,0 0,4 -4,0 0,-4z M57,41l4,0 0,4 -4,0 0,-4z M61,41l4,0 0,4 -4,0 0,-4z M65,41l4,0 0,4 -4,0 0,-4z M69,41l4,0 0,4 -4,0 0,-4z M81,41l4,0 0,4 -4,0 0,-4z M89,41l4,0 0,4 -4,0 0,-4z M101,41l4,0 0,4 -4,0 0,-4z M105,41l4,0 0,4 -4,0 0,-4z M109,41l4,0 0,4 -4,0 0,-4z M113,41l4,0 0,4 -4,0 0,-4z M117,41l4,0 0,4 -4,0 0,-4z M125,41l4,0 0,4 -4,0 0,-4z M1,45l4,0 0,4 -4,0 0,-4z M5,45l4,0 0,4 -4,0 0,-4z M17,45l4,0 0,4 -4,0 0,-4z M21,45l4,0 0,4 -4,0 0,-4z M37,45l4,0 0,4 -4,0 0,-4z M53,45l4,0 0,4 -4,0 0,-4z M69,45l4,0 0,4 -4,0 0,-4z M73,45l4,0 0,4 -4,0 0,-4z M77,45l4,0 0,4 -4,0 0,-4z M81,45l4,0 0,4 -4,0 0,-4z M93,45l4,0 0,4 -4,0 0,-4z M101,45l4,0 0,4 -4,0 0,-4z M117,45l4,0 0,4 -4,0 0,-4z M121,45l4,0 0,4 -4,0 0,-4z M125,45l4,0 0,4 -4,0 0,-4z M1,49l4,0 0,4 -4,0 0,-4z M5,49l4,0 0,4 -4,0 0,-4z M9,49l4,0 0,4 -4,0 0,-4z M21,49l4,0 0,4 -4,0 0,-4z M25,49l4,0 0,4 -4,0 0,-4z M29,49l4,0 0,4 -4,0 0,-4z M33,49l4,0 0,4 -4,0 0,-4z M45,49l4,0 0,4 -4,0 0,-4z M49,49l4,0 0,4 -4,0 0,-4z M57,49l4,0 0,4 -4,0 0,-4z M61,49l4,0 0,4 -4,0 0,-4z M65,49l4,0 0,4 -4,0 0,-4z M77,49l4,0 0,4 -4,0 0,-4z M81,49l4,0 0,4 -4,0 0,-4z M85,49l4,0 0,4 -4,0 0,-4z M89,49l4,0 0,4 -4,0 0,-4z M93,49l4,0 0,4 -4,0 0,-4z M97,49l4,0 0,4 -4,0 0,-4z M109,49l4,0 0,4 -4,0 0,-4z M113,49l4,0 0,4 -4,0 0,-4z M121,49l4,0 0,4 -4,0 0,-4z M125,49l4,0 0,4 -4,0 0,-4z M1,53l4,0 0,4 -4,0 0,-4z M9,53l4,0 0,4 -4,0 0,-4z M21,53l4,0 0,4 -4,0 0,-4z M33,53l4,0 0,4 -4,0 0,-4z M53,53l4,0 0,4 -4,0 0,-4z M61,53l4,0 0,4 -4,0 0,-4z M69,53l4,0 0,4 -4,0 0,-4z M73,53l4,0 0,4 -4,0 0,-4z M97,53l4,0 0,4 -4,0 0,-4z M101,53l4,0 0,4 -4,0 0,-4z M105,53l4,0 0,4 -4,0 0,-4z M109,53l4,0 0,4 -4,0 0,-4z M121,53l4,0 0,4 -4,0 0,-4z M125,53l4,0 0,4 -4,0 0,-4z M1,57l4,0 0,4 -4,0 0,-4z M13,57l4,0 0,4 -4,0 0,-4z M17,57l4,0 0,4 -4,0 0,-4z M25,57l4,0 0,4 -4,0 0,-4z M29,57l4,0 0,4 -4,0 0,-4z M33,57l4,0 0,4 -4,0 0,-4z M37,57l4,0 0,4 -4,0 0,-4z M41,57l4,0 0,4 -4,0 0,-4z M45,57l4,0 0,4 -4,0 0,-4z M49,57l4,0 0,4 -4,0 0,-4z M61,57l4,0 0,4 -4,0 0,-4z M65,57l4,0 0,4 -4,0 0,-4z M81,57l4,0 0,4 -4,0 0,-4z M85,57l4,0 0,4 -4,0 0,-4z M101,57l4,0 0,4 -4,0 0,-4z M113,57l4,0 0,4 -4,0 0,-4z M125,57l4,0 0,4 -4,0 0,-4z M1,61l4,0 0,4 -4,0 0,-4z M5,61l4,0 0,4 -4,0 0,-4z M13,61l4,0 0,4 -4,0 0,-4z M33,61l4,0 0,4 -4,0 0,-4z M49,61l4,0 0,4 -4,0 0,-4z M61,61l4,0 0,4 -4,0 0,-4z M73,61l4,0 0,4 -4,0 0,-4z M85,61l4,0 0,4 -4,0 0,-4z M89,61l4,0 0,4 -4,0 0,-4z M101,61l4,0 0,4 -4,0 0,-4z M109,61l4,0 0,4 -4,0 0,-4z M117,61l4,0 0,4 -4,0 0,-4z M121,61l4,0 0,4 -4,0 0,-4z M125,61l4,0 0,4 -4,0 0,-4z M129,61l4,0 0,4 -4,0 0,-4z M17,65l4,0 0,4 -4,0 0,-4z M21,65l4,0 0,4 -4,0 0,-4z M25,65l4,0 0,4 -4,0 0,-4z M41,65l4,0 0,4 -4,0 0,-4z M61,65l4,0 0,4 -4,0 0,-4z M85,65l4,0 0,4 -4,0 0,-4z M89,65l4,0 0,4 -4,0 0,-4z M97,65l4,0 0,4 -4,0 0,-4z M101,65l4,0 0,4 -4,0 0,-4z M109,65l4,0 0,4 -4,0 0,-4z M117,65l4,0 0,4 -4,0 0,-4z M9,69l4,0 0,4 -4,0 0,-4z M13,69l4,0 0,4 -4,0 0,-4z M17,69l4,0 0,4 -4,0 0,-4z M41,69l4,0 0,4 -4,0 0,-4z M49,69l4,0 0,4 -4,0 0,-4z M53,69l4,0 0,4 -4,0 0,-4z M61,69l4,0 0,4 -4,0 0,-4z M65,69l4,0 0,4 -4,0 0,-4z M73,69l4,0 0,4 -4,0 0,-4z M81,69l4,0 0,4 -4,0 0,-4z M85,69l4,0 0,4 -4,0 0,-4z M101,69l4,0 0,4 -4,0 0,-4z M121,69l4,0 0,4 -4,0 0,-4z M5,73l4,0 0,4 -4,0 0,-4z M9,73l4,0 0,4 -4,0 0,-4z M17,73l4,0 0,4 -4,0 0,-4z M21,73l4,0 0,4 -4,0 0,-4z M25,73l4,0 0,4 -4,0 0,-4z M53,73l4,0 0,4 -4,0 0,-4z M61,73l4,0 0,4 -4,0 0,-4z M73,73l4,0 0,4 -4,0 0,-4z M85,73l4,0 0,4 -4,0 0,-4z M97,73l4,0 0,4 -4,0 0,-4z M117,73l4,0 0,4 -4,0 0,-4z M125,73l4,0 0,4 -4,0 0,-4z M13,77l4,0 0,4 -4,0 0,-4z M33,77l4,0 0,4 -4,0 0,-4z M45,77l4,0 0,4 -4,0 0,-4z M53,77l4,0 0,4 -4,0 0,-4z M61,77l4,0 0,4 -4,0 0,-4z M77,77l4,0 0,4 -4,0 0,-4z M85,77l4,0 0,4 -4,0 0,-4z M89,77l4,0 0,4 -4,0 0,-4z M97,77l4,0 0,4 -4,0 0,-4z M109,77l4,0 0,4 -4,0 0,-4z M117,77l4,0 0,4 -4,0 0,-4z M121,77l4,0 0,4 -4,0 0,-4z M1,81l4,0 0,4 -4,0 0,-4z M17,81l4,0 0,4 -4,0 0,-4z M21,81l4,0 0,4 -4,0 0,-4z M25,81l4,0 0,4 -4,0 0,-4z M29,81l4,0 0,4 -4,0 0,-4z M37,81l4,0 0,4 -4,0 0,-4z M45,81l4,0 0,4 -4,0 0,-4z M53,81l4,0 0,4 -4,0 0,-4z M61,81l4,0 0,4 -4,0 0,-4z M73,81l4,0 0,4 -4,0 0,-4z M85,81l4,0 0,4 -4,0 0,-4z M109,81l4,0 0,4 -4,0 0,-4z M117,81l4,0 0,4 -4,0 0,-4z M129,81l4,0 0,4 -4,0 0,-4z M1,85l4,0 0,4 -4,0 0,-4z M5,85l4,0 0,4 -4,0 0,-4z M9,85l4,0 0,4 -4,0 0,-4z M13,85l4,0 0,4 -4,0 0,-4z M21,85l4,0 0,4 -4,0 0,-4z M45,85l4,0 0,4 -4,0 0,-4z M61,85l4,0 0,4 -4,0 0,-4z M65,85l4,0 0,4 -4,0 0,-4z M81,85l4,0 0,4 -4,0 0,-4z M85,85l4,0 0,4 -4,0 0,-4z M89,85l4,0 0,4 -4,0 0,-4z M93,85l4,0 0,4 -4,0 0,-4z M97,85l4,0 0,4 -4,0 0,-4z M101,85l4,0 0,4 -4,0 0,-4z M105,85l4,0 0,4 -4,0 0,-4z M117,85l4,0 0,4 -4,0 0,-4z M125,85l4,0 0,4 -4,0 0,-4z M1,89l4,0 0,4 -4,0 0,-4z M17,89l4,0 0,4 -4,0 0,-4z M25,89l4,0 0,4 -4,0 0,-4z M29,89l4,0 0,4 -4,0 0,-4z M37,89l4,0 0,4 -4,0 0,-4z M45,89l4,0 0,4 -4,0 0,-4z M57,89l4,0 0,4 -4,0 0,-4z M69,89l4,0 0,4 -4,0 0,-4z M77,89l4,0 0,4 -4,0 0,-4z M97,89l4,0 0,4 -4,0 0,-4z M101,89l4,0 0,4 -4,0 0,-4z M113,89l4,0 0,4 -4,0 0,-4z M121,89l4,0 0,4 -4,0 0,-4z M125,89l4,0 0,4 -4,0 0,-4z M1,93l4,0 0,4 -4,0 0,-4z M9,93l4,0 0,4 -4,0 0,-4z M17,93l4,0 0,4 -4,0 0,-4z M21,93l4,0 0,4 -4,0 0,-4z M29,93l4,0 0,4 -4,0 0,-4z M33,93l4,0 0,4 -4,0 0,-4z M45,93l4,0 0,4 -4,0 0,-4z M49,93l4,0 0,4 -4,0 0,-4z M53,93l4,0 0,4 -4,0 0,-4z M57,93l4,0 0,4 -4,0 0,-4z M65,93l4,0 0,4 -4,0 0,-4z M73,93l4,0 0,4 -4,0 0,-4z M77,93l4,0 0,4 -4,0 0,-4z M81,93l4,0 0,4 -4,0 0,-4z M85,93l4,0 0,4 -4,0 0,-4z M89,93l4,0 0,4 -4,0 0,-4z M93,93l4,0 0,4 -4,0 0,-4z M97,93l4,0 0,4 -4,0 0,-4z M109,93l4,0 0,4 -4,0 0,-4z M117,93l4,0 0,4 -4,0 0,-4z M121,93l4,0 0,4 -4,0 0,-4z M125,93l4,0 0,4 -4,0 0,-4z M129,93l4,0 0,4 -4,0 0,-4z M1,97l4,0 0,4 -4,0 0,-4z M13,97l4,0 0,4 -4,0 0,-4z M21,97l4,0 0,4 -4,0 0,-4z M25,97l4,0 0,4 -4,0 0,-4z M57,97l4,0 0,4 -4,0 0,-4z M77,97l4,0 0,4 -4,0 0,-4z M81,97l4,0 0,4 -4,0 0,-4z M85,97l4,0 0,4 -4,0 0,-4z M89,97l4,0 0,4 -4,0 0,-4z M97,97l4,0 0,4 -4,0 0,-4z M101,97l4,0 0,4 -4,0 0,-4z M105,97l4,0 0,4 -4,0 0,-4z M109,97l4,0 0,4 -4,0 0,-4z M113,97l4,0 0,4 -4,0 0,-4z M117,97l4,0 0,4 -4,0 0,-4z M121,97l4,0 0,4 -4,0 0,-4z M129,97l4,0 0,4 -4,0 0,-4z M33,101l4,0 0,4 -4,0 0,-4z M41,101l4,0 0,4 -4,0 0,-4z M57,101l4,0 0,4 -4,0 0,-4z M69,101l4,0 0,4 -4,0 0,-4z M73,101l4,0 0,4 -4,0 0,-4z M81,101l4,0 0,4 -4,0 0,-4z M97,101l4,0 0,4 -4,0 0,-4z M113,101l4,0 0,4 -4,0 0,-4z M117,101l4,0 0,4 -4,0 0,-4z M1,105l4,0 0,4 -4,0 0,-4z M5,105l4,0 0,4 -4,0 0,-4z M9,105l4,0 0,4 -4,0 0,-4z M13,105l4,0 0,4 -4,0 0,-4z M17,105l4,0 0,4 -4,0 0,-4z M21,105l4,0 0,4 -4,0 0,-4z M25,105l4,0 0,4 -4,0 0,-4z M37,105l4,0 0,4 -4,0 0,-4z M53,105l4,0 0,4 -4,0 0,-4z M57,105l4,0 0,4 -4,0 0,-4z M61,105l4,0 0,4 -4,0 0,-4z M65,105l4,0 0,4 -4,0 0,-4z M69,105l4,0 0,4 -4,0 0,-4z M89,105l4,0 0,4 -4,0 0,-4z M93,105l4,0 0,4 -4,0 0,-4z M97,105l4,0 0,4 -4,0 0,-4z M105,105l4,0 0,4 -4,0 0,-4z M113,105l4,0 0,4 -4,0 0,-4z M121,105l4,0 0,4 -4,0 0,-4z M125,105l4,0 0,4 -4,0 0,-4z M1,109l4,0 0,4 -4,0 0,-4z M25,109l4,0 0,4 -4,0 0,-4z M33,109l4,0 0,4 -4,0 0,-4z M45,109l4,0 0,4 -4,0 0,-4z M53,109l4,0 0,4 -4,0 0,-4z M61,109l4,0 0,4 -4,0 0,-4z M69,109l4,0 0,4 -4,0 0,-4z M73,109l4,0 0,4 -4,0 0,-4z M97,109l4,0 0,4 -4,0 0,-4z M113,109l4,0 0,4 -4,0 0,-4z M117,109l4,0 0,4 -4,0 0,-4z M121,109l4,0 0,4 -4,0 0,-4z M125,109l4,0 0,4 -4,0 0,-4z M129,109l4,0 0,4 -4,0 0,-4z M1,113l4,0 0,4 -4,0 0,-4z M9,113l4,0 0,4 -4,0 0,-4z M13,113l4,0 0,4 -4,0 0,-4z M17,113l4,0 0,4 -4,0 0,-4z M25,113l4,0 0,4 -4,0 0,-4z M33,113l4,0 0,4 -4,0 0,-4z M37,113l4,0 0,4 -4,0 0,-4z M41,113l4,0 0,4 -4,0 0,-4z M45,113l4,0 0,4 -4,0 0,-4z M49,113l4,0 0,4 -4,0 0,-4z M57,113l4,0 0,4 -4,0 0,-4z M65,113l4,0 0,4 -4,0 0,-4z M81,113l4,0 0,4 -4,0 0,-4z M85,113l4,0 0,4 -4,0 0,-4z M89,113l4,0 0,4 -4,0 0,-4z M97,113l4,0 0,4 -4,0 0,-4z M101,113l4,0 0,4 -4,0 0,-4z M105,113l4,0 0,4 -4,0 0,-4z M109,113l4,0 0,4 -4,0 0,-4z M113,113l4,0 0,4 -4,0 0,-4z M117,113l4,0 0,4 -4,0 0,-4z M121,113l4,0 0,4 -4,0 0,-4z M1,117l4,0 0,4 -4,0 0,-4z M9,117l4,0 0,4 -4,0 0,-4z M13,117l4,0 0,4 -4,0 0,-4z M17,117l4,0 0,4 -4,0 0,-4z M25,117l4,0 0,4 -4,0 0,-4z M33,117l4,0 0,4 -4,0 0,-4z M37,117l4,0 0,4 -4,0 0,-4z M45,117l4,0 0,4 -4,0 0,-4z M53,117l4,0 0,4 -4,0 0,-4z M61,117l4,0 0,4 -4,0 0,-4z M69,117l4,0 0,4 -4,0 0,-4z M73,117l4,0 0,4 -4,0 0,-4z M85,117l4,0 0,4 -4,0 0,-4z M93,117l4,0 0,4 -4,0 0,-4z M97,117l4,0 0,4 -4,0 0,-4z M101,117l4,0 0,4 -4,0 0,-4z M109,117l4,0 0,4 -4,0 0,-4z M121,117l4,0 0,4 -4,0 0,-4z M129,117l4,0 0,4 -4,0 0,-4z M1,121l4,0 0,4 -4,0 0,-4z M9,121l4,0 0,4 -4,0 0,-4z M13,121l4,0 0,4 -4,0 0,-4z M17,121l4,0 0,4 -4,0 0,-4z M25,121l4,0 0,4 -4,0 0,-4z M33,121l4,0 0,4 -4,0 0,-4z M45,121l4,0 0,4 -4,0 0,-4z M49,121l4,0 0,4 -4,0 0,-4z M57,121l4,0 0,4 -4,0 0,-4z M61,121l4,0 0,4 -4,0 0,-4z M65,121l4,0 0,4 -4,0 0,-4z M81,121l4,0 0,4 -4,0 0,-4z M85,121l4,0 0,4 -4,0 0,-4z M89,121l4,0 0,4 -4,0 0,-4z M101,121l4,0 0,4 -4,0 0,-4z M117,121l4,0 0,4 -4,0 0,-4z M1,125l4,0 0,4 -4,0 0,-4z M25,125l4,0 0,4 -4,0 0,-4z M37,125l4,0 0,4 -4,0 0,-4z M41,125l4,0 0,4 -4,0 0,-4z M45,125l4,0 0,4 -4,0 0,-4z M49,125l4,0 0,4 -4,0 0,-4z M53,125l4,0 0,4 -4,0 0,-4z M61,125l4,0 0,4 -4,0 0,-4z M73,125l4,0 0,4 -4,0 0,-4z M85,125l4,0 0,4 -4,0 0,-4z M89,125l4,0 0,4 -4,0 0,-4z M93,125l4,0 0,4 -4,0 0,-4z M113,125l4,0 0,4 -4,0 0,-4z M117,125l4,0 0,4 -4,0 0,-4z M121,125l4,0 0,4 -4,0 0,-4z M1,129l4,0 0,4 -4,0 0,-4z M5,129l4,0 0,4 -4,0 0,-4z M9,129l4,0 0,4 -4,0 0,-4z M13,129l4,0 0,4 -4,0 0,-4z M17,129l4,0 0,4 -4,0 0,-4z M21,129l4,0 0,4 -4,0 0,-4z M25,129l4,0 0,4 -4,0 0,-4z M33,129l4,0 0,4 -4,0 0,-4z M37,129l4,0 0,4 -4,0 0,-4z M45,129l4,0 0,4 -4,0 0,-4z M53,129l4,0 0,4 -4,0 0,-4z M57,129l4,0 0,4 -4,0 0,-4z M61,129l4,0 0,4 -4,0 0,-4z M65,129l4,0 0,4 -4,0 0,-4z M97,129l4,0 0,4 -4,0 0,-4z M101,129l4,0 0,4 -4,0 0,-4z M109,129l4,0 0,4 -4,0 0,-4z M117,129l4,0 0,4 -4,0 0,-4z M121,129l4,0 0,4 -4,0 0,-4z M125,129l4,0 0,4 -4,0 0,-4z " stroke="transparent" fill="black"/></svg>