<svg version="1.1" xmlns="http://www.w3.org/2000/svg" width="118px" height="118px" viewBox="0 0 118 118"  preserveAspectRatio="xMinYMin meet"><rect width="100%" height="100%" fill="white" cx="0" cy="0"/><path d="M1,1l4,0 0,4 -4,0 0,-4z M5,1l4,0 0,4 -4,0 0,-4z M9,1l4,0 0,4 -4,0 0,-4z M13,1l4,0 0,4 -4,0 0,-4z M17,1l4,0 0,4 -4,0 0,-4z M21,1l4,0 0,4 -4,0 0,-4z M25,1l4,0 0,4 -4,0 0,-4z M33,1l4,0 0,4 -4,0 0,-4z M41,1l4,0 0,4 -4,0 0,-4z M45,1l4,0 0,4 -4,0 0,-4z M49,1l4,0 0,4 -4,0 0,-4z M57,1l4,0 0,4 -4,0 0,-4z M73,1l4,0 0,4 -4,0 0,-4z M77,1l4,0 0,4 -4,0 0,-4z M89,1l4,0 0,4 -4,0 0,-4z M93,1l4,0 0,4 -4,0 0,-4z M97,1l4,0 0,4 -4,0 0,-4z M101,1l4,0 0,4 -4,0 0,-4z M105,1l4,0 0,4 -4,0 0,-4z M109,1l4,0 0,4 -4,0 0,-4z M113,1l4,0 0,4 -4,0 0,-4z M1,5l4,0 0,4 -4,0 0,-4z M25,5l4,0 0,4 -4,0 0,-4z M33,5l4,0 0,4 -4,0 0,-4z M37,5l4,0 0,4 -4,0 0,-4z M57,5l4,0 0,4 -4,0 0,-4z M69,5l4,0 0,4 -4,0 0,-4z M89,5l4,0 0,4 -4,0 0,-4z M113,5l4,0 0,4 -4,0 0,-4z M1,9l4,0 0,4 -4,0 0,-4z M9,9l4,0 0,4 -4,0 0,-4z M13,9l4,0 0,4 -4,0 0,-4z M17,9l4,0 0,4 -4,0 0,-4z M25,9l4,0 0,4 -4,0 0,-4z M41,9l4,0 0,4 -4,0 0,-4z M45,9l4,0 0,4 -4,0 0,-4z M49,9l4,0 0,4 -4,0 0,-4z M53,9l4,0 0,4 -4,0 0,-4z M65,9l4,0 0,4 -4,0 0,-4z M81,9l4,0 0,4 -4,0 0,-4z M89,9l4,0 0,4 -4,0 0,-4z M97,9l4,0 0,4 -4,0 0,-4z M101,9l4,0 0,4 -4,0 0,-4z M105,9l4,0 0,4 -4,0 0,-4z M113,9l4,0 0,4 -4,0 0,-4z M1,13l4,0 0,4 -4,0 0,-4z M9,13l4,0 0,4 -4,0 0,-4z M13,13l4,0 0,4 -4,0 0,-4z M17,13l4,0 0,4 -4,0 0,-4z M25,13l4,0 0,4 -4,0 0,-4z M33,13l4,0 0,4 -4,0 0,-4z M37,13l4,0 0,4 -4,0 0,-4z M49,13l4,0 0,4 -4,0 0,-4z M53,13l4,0 0,4 -4,0 0,-4z M61,13l4,0 0,4 -4,0 0,-4z M65,13l4,0 0,4 -4,0 0,-4z M81,13l4,0 0,4 -4,0 0,-4z M89,13l4,0 0,4 -4,0 0,-4z M97,13l4,0 0,4 -4,0 0,-4z M101,13l4,0 0,4 -4,0 0,-4z M105,13l4,0 0,4 -4,0 0,-4z M113,13l4,0 0,4 -4,0 0,-4z M1,17l4,0 0,4 -4,0 0,-4z M9,17l4,0 0,4 -4,0 0,-4z M13,17l4,0 0,4 -4,0 0,-4z M17,17l4,0 0,4 -4,0 0,-4z M25,17l4,0 0,4 -4,0 0,-4z M37,17l4,0 0,4 -4,0 0,-4z M41,17l4,0 0,4 -4,0 0,-4z M45,17l4,0 0,4 -4,0 0,-4z M61,17l4,0 0,4 -4,0 0,-4z M69,17l4,0 0,4 -4,0 0,-4z M89,17l4,0 0,4 -4,0 0,-4z M97,17l4,0 0,4 -4,0 0,-4z M101,17l4,0 0,4 -4,0 0,-4z M105,17l4,0 0,4 -4,0 0,-4z M113,17l4,0 0,4 -4,0 0,-4z M1,21l4,0 0,4 -4,0 0,-4z M25,21l4,0 0,4 -4,0 0,-4z M45,21l4,0 0,4 -4,0 0,-4z M69,21l4,0 0,4 -4,0 0,-4z M77,21l4,0 0,4 -4,0 0,-4z M81,21l4,0 0,4 -4,0 0,-4z M89,21l4,0 0,4 -4,0 0,-4z M113,21l4,0 0,4 -4,0 0,-4z M1,25l4,0 0,4 -4,0 0,-4z M5,25l4,0 0,4 -4,0 0,-4z M9,25l4,0 0,4 -4,0 0,-4z M13,25l4,0 0,4 -4,0 0,-4z M17,25l4,0 0,4 -4,0 0,-4z M21,25l4,0 0,4 -4,0 0,-4z M25,25l4,0 0,4 -4,0 0,-4z M33,25l4,0 0,4 -4,0 0,-4z M41,25l4,0 0,4 -4,0 0,-4z M49,25l4,0 0,4 -4,0 0,-4z M57,25l4,0 0,4 -4,0 0,-4z M65,25l4,0 0,4 -4,0 0,-4z M73,25l4,0 0,4 -4,0 0,-4z M81,25l4,0 0,4 -4,0 0,-4z M89,25l4,0 0,4 -4,0 0,-4z M93,25l4,0 0,4 -4,0 0,-4z M97,25l4,0 0,4 -4,0 0,-4z M101,25l4,0 0,4 -4,0 0,-4z M105,25l4,0 0,4 -4,0 0,-4z M109,25l4,0 0,4 -4,0 0,-4z M113,25l4,0 0,4 -4,0 0,-4z M33,29l4,0 0,4 -4,0 0,-4z M41,29l4,0 0,4 -4,0 0,-4z M45,29l4,0 0,4 -4,0 0,-4z M57,29l4,0 0,4 -4,0 0,-4z M65,29l4,0 0,4 -4,0 0,-4z M69,29l4,0 0,4 -4,0 0,-4z M73,29l4,0 0,4 -4,0 0,-4z M77,29l4,0 0,4 -4,0 0,-4z M1,33l4,0 0,4 -4,0 0,-4z M9,33l4,0 0,4 -4,0 0,-4z M13,33l4,0 0,4 -4,0 0,-4z M21,33l4,0 0,4 -4,0 0,-4z M25,33l4,0 0,4 -4,0 0,-4z M29,33l4,0 0,4 -4,0 0,-4z M37,33l4,0 0,4 -4,0 0,-4z M45,33l4,0 0,4 -4,0 0,-4z M61,33l4,0 0,4 -4,0 0,-4z M65,33l4,0 0,4 -4,0 0,-4z M73,33l4,0 0,4 -4,0 0,-4z M89,33l4,0 0,4 -4,0 0,-4z M101,33l4,0 0,4 -4,0 0,-4z M109,33l4,0 0,4 -4,0 0,-4z M113,33l4,0 0,4 -4,0 0,-4z M9,37l4,0 0,4 -4,0 0,-4z M21,37l4,0 0,4 -4,0 0,-4z M29,37l4,0 0,4 -4,0 0,-4z M33,37l4,0 0,4 -4,0 0,-4z M37,37l4,0 0,4 -4,0 0,-4z M57,37l4,0 0,4 -4,0 0,-4z M81,37l4,0 0,4 -4,0 0,-4z M85,37l4,0 0,4 -4,0 0,-4z M93,37l4,0 0,4 -4,0 0,-4z M97,37l4,0 0,4 -4,0 0,-4z M101,37l4,0 0,4 -4,0 0,-4z M105,37l4,0 0,4 -4,0 0,-4z M113,37l4,0 0,4 -4,0 0,-4z M5,41l4,0 0,4 -4,0 0,-4z M9,41l4,0 0,4 -4,0 0,-4z M13,41l4,0 0,4 -4,0 0,-4z M21,41l4,0 0,4 -4,0 0,-4z M25,41l4,0 0,4 -4,0 0,-4z M29,41l4,0 0,4 -4,0 0,-4z M45,41l4,0 0,4 -4,0 0,-4z M57,41l4,0 0,4 -4,0 0,-4z M65,41l4,0 0,4 -4,0 0,-4z M69,41l4,0 0,4 -4,0 0,-4z M73,41l4,0 0,4 -4,0 0,-4z M81,41l4,0 0,4 -4,0 0,-4z M85,41l4,0 0,4 -4,0 0,-4z M89,41l4,0 0,4 -4,0 0,-4z M93,41l4,0 0,4 -4,0 0,-4z M97,41l4,0 0,4 -4,0 0,-4z M105,41l4,0 0,4 -4,0 0,-4z M109,41l4,0 0,4 -4,0 0,-4z M1,45l4,0 0,4 -4,0 0,-4z M5,45l4,0 0,4 -4,0 0,-4z M9,45l4,0 0,4 -4,0 0,-4z M37,45l4,0 0,4 -4,0 0,-4z M49,45l4,0 0,4 -4,0 0,-4z M53,45l4,0 0,4 -4,0 0,-4z M57,45l4,0 0,4 -4,0 0,-4z M61,45l4,0 0,4 -4,0 0,-4z M65,45l4,0 0,4 -4,0 0,-4z M73,45l4,0 0,4 -4,0 0,-4z M77,45l4,0 0,4 -4,0 0,-4z M81,45l4,0 0,4 -4,0 0,-4z M85,45l4,0 0,4 -4,0 0,-4z M101,45l4,0 0,4 -4,0 0,-4z M109,45l4,0 0,4 -4,0 0,-4z M1,49l4,0 0,4 -4,0 0,-4z M5,49l4,0 0,4 -4,0 0,-4z M21,49l4,0 0,4 -4,0 0,-4z M25,49l4,0 0,4 -4,0 0,-4z M29,49l4,0 0,4 -4,0 0,-4z M37,49l4,0 0,4 -4,0 0,-4z M41,49l4,0 0,4 -4,0 0,-4z M45,49l4,0 0,4 -4,0 0,-4z M49,49l4,0 0,4 -4,0 0,-4z M61,49l4,0 0,4 -4,0 0,-4z M93,49l4,0 0,4 -4,0 0,-4z M97,49l4,0 0,4 -4,0 0,-4z M101,49l4,0 0,4 -4,0 0,-4z M105,49l4,0 0,4 -4,0 0,-4z M109,49l4,0 0,4 -4,0 0,-4z M1,53l4,0 0,4 -4,0 0,-4z M5,53l4,0 0,4 -4,0 0,-4z M9,53l4,0 0,4 -4,0 0,-4z M13,53l4,0 0,4 -4,0 0,-4z M17,53l4,0 0,4 -4,0 0,-4z M21,53l4,0 0,4 -4,0 0,-4z M29,53l4,0 0,4 -4,0 0,-4z M33,53l4,0 0,4 -4,0 0,-4z M37,53l4,0 0,4 -4,0 0,-4z M41,53l4,0 0,4 -4,0 0,-4z M53,53l4,0 0,4 -4,0 0,-4z M57,53l4,0 0,4 -4,0 0,-4z M65,53l4,0 0,4 -4,0 0,-4z M69,53l4,0 0,4 -4,0 0,-4z M73,53l4,0 0,4 -4,0 0,-4z M101,53l4,0 0,4 -4,0 0,-4z M105,53l4,0 0,4 -4,0 0,-4z M13,57l4,0 0,4 -4,0 0,-4z M17,57l4,0 0,4 -4,0 0,-4z M25,57l4,0 0,4 -4,0 0,-4z M29,57l4,0 0,4 -4,0 0,-4z M37,57l4,0 0,4 -4,0 0,-4z M41,57l4,0 0,4 -4,0 0,-4z M45,57l4,0 0,4 -4,0 0,-4z M57,57l4,0 0,4 -4,0 0,-4z M69,57l4,0 0,4 -4,0 0,-4z M77,57l4,0 0,4 -4,0 0,-4z M85,57l4,0 0,4 -4,0 0,-4z M101,57l4,0 0,4 -4,0 0,-4z M109,57l4,0 0,4 -4,0 0,-4z M113,57l4,0 0,4 -4,0 0,-4z M5,61l4,0 0,4 -4,0 0,-4z M9,61l4,0 0,4 -4,0 0,-4z M13,61l4,0 0,4 -4,0 0,-4z M17,61l4,0 0,4 -4,0 0,-4z M29,61l4,0 0,4 -4,0 0,-4z M49,61l4,0 0,4 -4,0 0,-4z M53,61l4,0 0,4 -4,0 0,-4z M73,61l4,0 0,4 -4,0 0,-4z M77,61l4,0 0,4 -4,0 0,-4z M81,61l4,0 0,4 -4,0 0,-4z M89,61l4,0 0,4 -4,0 0,-4z M97,61l4,0 0,4 -4,0 0,-4z M101,61l4,0 0,4 -4,0 0,-4z M113,61l4,0 0,4 -4,0 0,-4z M17,65l4,0 0,4 -4,0 0,-4z M25,65l4,0 0,4 -4,0 0,-4z M33,65l4,0 0,4 -4,0 0,-4z M45,65l4,0 0,4 -4,0 0,-4z M65,65l4,0 0,4 -4,0 0,-4z M69,65l4,0 0,4 -4,0 0,-4z M73,65l4,0 0,4 -4,0 0,-4z M77,65l4,0 0,4 -4,0 0,-4z M81,65l4,0 0,4 -4,0 0,-4z M85,65l4,0 0,4 -4,0 0,-4z M93,65l4,0 0,4 -4,0 0,-4z M97,65l4,0 0,4 -4,0 0,-4z M101,65l4,0 0,4 -4,0 0,-4z M105,65l4,0 0,4 -4,0 0,-4z M21,69l4,0 0,4 -4,0 0,-4z M37,69l4,0 0,4 -4,0 0,-4z M49,69l4,0 0,4 -4,0 0,-4z M53,69l4,0 0,4 -4,0 0,-4z M73,69l4,0 0,4 -4,0 0,-4z M77,69l4,0 0,4 -4,0 0,-4z M81,69l4,0 0,4 -4,0 0,-4z M89,69l4,0 0,4 -4,0 0,-4z M101,69l4,0 0,4 -4,0 0,-4z M109,69l4,0 0,4 -4,0 0,-4z M113,69l4,0 0,4 -4,0 0,-4z M1,73l4,0 0,4 -4,0 0,-4z M9,73l4,0 0,4 -4,0 0,-4z M25,73l4,0 0,4 -4,0 0,-4z M29,73l4,0 0,4 -4,0 0,-4z M37,73l4,0 0,4 -4,0 0,-4z M41,73l4,0 0,4 -4,0 0,-4z M61,73l4,0 0,4 -4,0 0,-4z M65,73l4,0 0,4 -4,0 0,-4z M81,73l4,0 0,4 -4,0 0,-4z M89,73l4,0 0,4 -4,0 0,-4z M97,73l4,0 0,4 -4,0 0,-4z M101,73l4,0 0,4 -4,0 0,-4z M105,73l4,0 0,4 -4,0 0,-4z M9,77l4,0 0,4 -4,0 0,-4z M13,77l4,0 0,4 -4,0 0,-4z M17,77l4,0 0,4 -4,0 0,-4z M21,77l4,0 0,4 -4,0 0,-4z M29,77l4,0 0,4 -4,0 0,-4z M37,77l4,0 0,4 -4,0 0,-4z M41,77l4,0 0,4 -4,0 0,-4z M49,77l4,0 0,4 -4,0 0,-4z M61,77l4,0 0,4 -4,0 0,-4z M69,77l4,0 0,4 -4,0 0,-4z M81,77l4,0 0,4 -4,0 0,-4z M85,77l4,0 0,4 -4,0 0,-4z M105,77l4,0 0,4 -4,0 0,-4z M109,77l4,0 0,4 -4,0 0,-4z M113,77l4,0 0,4 -4,0 0,-4z M5,81l4,0 0,4 -4,0 0,-4z M21,81l4,0 0,4 -4,0 0,-4z M25,81l4,0 0,4 -4,0 0,-4z M37,81l4,0 0,4 -4,0 0,-4z M41,81l4,0 0,4 -4,0 0,-4z M53,81l4,0 0,4 -4,0 0,-4z M73,81l4,0 0,4 -4,0 0,-4z M81,81l4,0 0,4 -4,0 0,-4z M85,81l4,0 0,4 -4,0 0,-4z M89,81l4,0 0,4 -4,0 0,-4z M93,81l4,0 0,4 -4,0 0,-4z M97,81l4,0 0,4 -4,0 0,-4z M101,81l4,0 0,4 -4,0 0,-4z M105,81l4,0 0,4 -4,0 0,-4z M113,81l4,0 0,4 -4,0 0,-4z M33,85l4,0 0,4 -4,0 0,-4z M53,85l4,0 0,4 -4,0 0,-4z M57,85l4,0 0,4 -4,0 0,-4z M61,85l4,0 0,4 -4,0 0,-4z M65,85l4,0 0,4 -4,0 0,-4z M73,85l4,0 0,4 -4,0 0,-4z M81,85l4,0 0,4 -4,0 0,-4z M97,85l4,0 0,4 -4,0 0,-4z M1,89l4,0 0,4 -4,0 0,-4z M5,89l4,0 0,4 -4,0 0,-4z M9,89l4,0 0,4 -4,0 0,-4z M13,89l4,0 0,4 -4,0 0,-4z M17,89l4,0 0,4 -4,0 0,-4z M21,89l4,0 0,4 -4,0 0,-4z M25,89l4,0 0,4 -4,0 0,-4z M33,89l4,0 0,4 -4,0 0,-4z M37,89l4,0 0,4 -4,0 0,-4z M45,89l4,0 0,4 -4,0 0,-4z M49,89l4,0 0,4 -4,0 0,-4z M53,89l4,0 0,4 -4,0 0,-4z M69,89l4,0 0,4 -4,0 0,-4z M81,89l4,0 0,4 -4,0 0,-4z M89,89l4,0 0,4 -4,0 0,-4z M97,89l4,0 0,4 -4,0 0,-4z M105,89l4,0 0,4 -4,0 0,-4z M109,89l4,0 0,4 -4,0 0,-4z M1,93l4,0 0,4 -4,0 0,-4z M25,93l4,0 0,4 -4,0 0,-4z M33,93l4,0 0,4 -4,0 0,-4z M41,93l4,0 0,4 -4,0 0,-4z M45,93l4,0 0,4 -4,0 0,-4z M49,93l4,0 0,4 -4,0 0,-4z M73,93l4,0 0,4 -4,0 0,-4z M81,93l4,0 0,4 -4,0 0,-4z M97,93l4,0 0,4 -4,0 0,-4z M109,93l4,0 0,4 -4,0 0,-4z M1,97l4,0 0,4 -4,0 0,-4z M9,97l4,0 0,4 -4,0 0,-4z M13,97l4,0 0,4 -4,0 0,-4z M17,97l4,0 0,4 -4,0 0,-4z M25,97l4,0 0,4 -4,0 0,-4z M41,97l4,0 0,4 -4,0 0,-4z M49,97l4,0 0,4 -4,0 0,-4z M57,97l4,0 0,4 -4,0 0,-4z M65,97l4,0 0,4 -4,0 0,-4z M81,97l4,0 0,4 -4,0 0,-4z M85,97l4,0 0,4 -4,0 0,-4z M89,97l4,0 0,4 -4,0 0,-4z M93,97l4,0 0,4 -4,0 0,-4z M97,97l4,0 0,4 -4,0 0,-4z M101,97l4,0 0,4 -4,0 0,-4z M1,101l4,0 0,4 -4,0 0,-4z M9,101l4,0 0,4 -4,0 0,-4z M13,101l4,0 0,4 -4,0 0,-4z M17,101l4,0 0,4 -4,0 0,-4z M25,101l4,0 0,4 -4,0 0,-4z M33,101l4,0 0,4 -4,0 0,-4z M45,101l4,0 0,4 -4,0 0,-4z M57,101l4,0 0,4 -4,0 0,-4z M61,101l4,0 0,4 -4,0 0,-4z M65,101l4,0 0,4 -4,0 0,-4z M77,101l4,0 0,4 -4,0 0,-4z M85,101l4,0 0,4 -4,0 0,-4z M93,101l4,0 0,4 -4,0 0,-4z M105,101l4,0 0,4 -4,0 0,-4z M113,101l4,0 0,4 -4,0 0,-4z M1,105l4,0 0,4 -4,0 0,-4z M9,105l4,0 0,4 -4,0 0,-4z M13,105l4,0 0,4 -4,0 0,-4z M17,105l4,0 0,4 -4,0 0,-4z M25,105l4,0 0,4 -4,0 0,-4z M33,105l4,0 0,4 -4,0 0,-4z M49,105l4,0 0,4 -4,0 0,-4z M65,105l4,0 0,4 -4,0 0,-4z M85,105l4,0 0,4 -4,0 0,-4z M93,105l4,0 0,4 -4,0 0,-4z M101,105l4,0 0,4 -4,0 0,-4z M105,105l4,0 0,4 -4,0 0,-4z M113,105l4,0 0,4 -4,0 0,-4z M1,109l4,0 0,4 -4,0 0,-4z M25,109l4,0 0,4 -4,0 0,-4z M37,109l4,0 0,4 -4,0 0,-4z M41,109l4,0 0,4 -4,0 0,-4z M45,109l4,0 0,4 -4,0 0,-4z M65,109l4,0 0,4 -4,0 0,-4z M77,109l4,0 0,4 -4,0 0,-4z M89,109l4,0 0,4 -4,0 0,-4z M109,109l4,0 0,4 -4,0 0,-4z M1,113l4,0 0,4 -4,0 0,-4z M5,113l4,0 0,4 -4,0 0,-4z M9,113l4,0 0,4 -4,0 0,-4z M13,113l4,0 0,4 -4,0 0,-4z M17,113l4,0 0,4 -4,0 0,-4z M21,113l4,0 0,4 -4,0 0,-4z M25,113l4,0 0,4 -4,0 0,-4z M33,113l4,0 0,4 -4,0 0,-4z M37,113l4,0 0,4 -4,0 0,-4z M41,113l4,0 0,4 -4,0 0,-4z M45,113l4,0 0,4 -4,0 0,-4z M61,113l4,0 0,4 -4,0 0,-4z M69,113l4,0 0,4 -4,0 0,-4z M73,113l4,0 0,4 -4,0 0,-4z M77,113l4,0 0,4 -4,0 0,-4z M81,113l4,0 0,4 -4,0 0,-4z M109,113l4,0 0,4 -4,0 0,-4z " stroke="transparent" fill="black"/></svg>