<svg version="1.1" xmlns="http://www.w3.org/2000/svg" width="118px" height="118px" viewBox="0 0 118 118"  preserveAspectRatio="xMinYMin meet"><rect width="100%" height="100%" fill="white" cx="0" cy="0"/><path d="M1,1l4,0 0,4 -4,0 0,-4z M5,1l4,0 0,4 -4,0 0,-4z M9,1l4,0 0,4 -4,0 0,-4z M13,1l4,0 0,4 -4,0 0,-4z M17,1l4,0 0,4 -4,0 0,-4z M21,1l4,0 0,4 -4,0 0,-4z M25,1l4,0 0,4 -4,0 0,-4z M33,1l4,0 0,4 -4,0 0,-4z M37,1l4,0 0,4 -4,0 0,-4z M45,1l4,0 0,4 -4,0 0,-4z M49,1l4,0 0,4 -4,0 0,-4z M53,1l4,0 0,4 -4,0 0,-4z M57,1l4,0 0,4 -4,0 0,-4z M65,1l4,0 0,4 -4,0 0,-4z M69,1l4,0 0,4 -4,0 0,-4z M89,1l4,0 0,4 -4,0 0,-4z M93,1l4,0 0,4 -4,0 0,-4z M97,1l4,0 0,4 -4,0 0,-4z M101,1l4,0 0,4 -4,0 0,-4z M105,1l4,0 0,4 -4,0 0,-4z M109,1l4,0 0,4 -4,0 0,-4z M113,1l4,0 0,4 -4,0 0,-4z M1,5l4,0 0,4 -4,0 0,-4z M25,5l4,0 0,4 -4,0 0,-4z M45,5l4,0 0,4 -4,0 0,-4z M53,5l4,0 0,4 -4,0 0,-4z M57,5l4,0 0,4 -4,0 0,-4z M61,5l4,0 0,4 -4,0 0,-4z M77,5l4,0 0,4 -4,0 0,-4z M89,5l4,0 0,4 -4,0 0,-4z M113,5l4,0 0,4 -4,0 0,-4z M1,9l4,0 0,4 -4,0 0,-4z M9,9l4,0 0,4 -4,0 0,-4z M13,9l4,0 0,4 -4,0 0,-4z M17,9l4,0 0,4 -4,0 0,-4z M25,9l4,0 0,4 -4,0 0,-4z M57,9l4,0 0,4 -4,0 0,-4z M69,9l4,0 0,4 -4,0 0,-4z M77,9l4,0 0,4 -4,0 0,-4z M81,9l4,0 0,4 -4,0 0,-4z M89,9l4,0 0,4 -4,0 0,-4z M97,9l4,0 0,4 -4,0 0,-4z M101,9l4,0 0,4 -4,0 0,-4z M105,9l4,0 0,4 -4,0 0,-4z M113,9l4,0 0,4 -4,0 0,-4z M1,13l4,0 0,4 -4,0 0,-4z M9,13l4,0 0,4 -4,0 0,-4z M13,13l4,0 0,4 -4,0 0,-4z M17,13l4,0 0,4 -4,0 0,-4z M25,13l4,0 0,4 -4,0 0,-4z M33,13l4,0 0,4 -4,0 0,-4z M37,13l4,0 0,4 -4,0 0,-4z M45,13l4,0 0,4 -4,0 0,-4z M49,13l4,0 0,4 -4,0 0,-4z M69,13l4,0 0,4 -4,0 0,-4z M73,13l4,0 0,4 -4,0 0,-4z M81,13l4,0 0,4 -4,0 0,-4z M89,13l4,0 0,4 -4,0 0,-4z M97,13l4,0 0,4 -4,0 0,-4z M101,13l4,0 0,4 -4,0 0,-4z M105,13l4,0 0,4 -4,0 0,-4z M113,13l4,0 0,4 -4,0 0,-4z M1,17l4,0 0,4 -4,0 0,-4z M9,17l4,0 0,4 -4,0 0,-4z M13,17l4,0 0,4 -4,0 0,-4z M17,17l4,0 0,4 -4,0 0,-4z M25,17l4,0 0,4 -4,0 0,-4z M33,17l4,0 0,4 -4,0 0,-4z M37,17l4,0 0,4 -4,0 0,-4z M45,17l4,0 0,4 -4,0 0,-4z M77,17l4,0 0,4 -4,0 0,-4z M89,17l4,0 0,4 -4,0 0,-4z M97,17l4,0 0,4 -4,0 0,-4z M101,17l4,0 0,4 -4,0 0,-4z M105,17l4,0 0,4 -4,0 0,-4z M113,17l4,0 0,4 -4,0 0,-4z M1,21l4,0 0,4 -4,0 0,-4z M25,21l4,0 0,4 -4,0 0,-4z M33,21l4,0 0,4 -4,0 0,-4z M37,21l4,0 0,4 -4,0 0,-4z M41,21l4,0 0,4 -4,0 0,-4z M45,21l4,0 0,4 -4,0 0,-4z M49,21l4,0 0,4 -4,0 0,-4z M65,21l4,0 0,4 -4,0 0,-4z M69,21l4,0 0,4 -4,0 0,-4z M73,21l4,0 0,4 -4,0 0,-4z M77,21l4,0 0,4 -4,0 0,-4z M89,21l4,0 0,4 -4,0 0,-4z M113,21l4,0 0,4 -4,0 0,-4z M1,25l4,0 0,4 -4,0 0,-4z M5,25l4,0 0,4 -4,0 0,-4z M9,25l4,0 0,4 -4,0 0,-4z M13,25l4,0 0,4 -4,0 0,-4z M17,25l4,0 0,4 -4,0 0,-4z M21,25l4,0 0,4 -4,0 0,-4z M25,25l4,0 0,4 -4,0 0,-4z M33,25l4,0 0,4 -4,0 0,-4z M41,25l4,0 0,4 -4,0 0,-4z M49,25l4,0 0,4 -4,0 0,-4z M57,25l4,0 0,4 -4,0 0,-4z M65,25l4,0 0,4 -4,0 0,-4z M73,25l4,0 0,4 -4,0 0,-4z M81,25l4,0 0,4 -4,0 0,-4z M89,25l4,0 0,4 -4,0 0,-4z M93,25l4,0 0,4 -4,0 0,-4z M97,25l4,0 0,4 -4,0 0,-4z M101,25l4,0 0,4 -4,0 0,-4z M105,25l4,0 0,4 -4,0 0,-4z M109,25l4,0 0,4 -4,0 0,-4z M113,25l4,0 0,4 -4,0 0,-4z M33,29l4,0 0,4 -4,0 0,-4z M53,29l4,0 0,4 -4,0 0,-4z M61,29l4,0 0,4 -4,0 0,-4z M65,29l4,0 0,4 -4,0 0,-4z M69,29l4,0 0,4 -4,0 0,-4z M73,29l4,0 0,4 -4,0 0,-4z M77,29l4,0 0,4 -4,0 0,-4z M81,29l4,0 0,4 -4,0 0,-4z M1,33l4,0 0,4 -4,0 0,-4z M17,33l4,0 0,4 -4,0 0,-4z M25,33l4,0 0,4 -4,0 0,-4z M29,33l4,0 0,4 -4,0 0,-4z M33,33l4,0 0,4 -4,0 0,-4z M37,33l4,0 0,4 -4,0 0,-4z M45,33l4,0 0,4 -4,0 0,-4z M49,33l4,0 0,4 -4,0 0,-4z M53,33l4,0 0,4 -4,0 0,-4z M81,33l4,0 0,4 -4,0 0,-4z M85,33l4,0 0,4 -4,0 0,-4z M89,33l4,0 0,4 -4,0 0,-4z M93,33l4,0 0,4 -4,0 0,-4z M97,33l4,0 0,4 -4,0 0,-4z M101,33l4,0 0,4 -4,0 0,-4z M113,33l4,0 0,4 -4,0 0,-4z M13,37l4,0 0,4 -4,0 0,-4z M17,37l4,0 0,4 -4,0 0,-4z M29,37l4,0 0,4 -4,0 0,-4z M33,37l4,0 0,4 -4,0 0,-4z M45,37l4,0 0,4 -4,0 0,-4z M53,37l4,0 0,4 -4,0 0,-4z M57,37l4,0 0,4 -4,0 0,-4z M65,37l4,0 0,4 -4,0 0,-4z M77,37l4,0 0,4 -4,0 0,-4z M93,37l4,0 0,4 -4,0 0,-4z M97,37l4,0 0,4 -4,0 0,-4z M109,37l4,0 0,4 -4,0 0,-4z M113,37l4,0 0,4 -4,0 0,-4z M5,41l4,0 0,4 -4,0 0,-4z M13,41l4,0 0,4 -4,0 0,-4z M25,41l4,0 0,4 -4,0 0,-4z M29,41l4,0 0,4 -4,0 0,-4z M37,41l4,0 0,4 -4,0 0,-4z M45,41l4,0 0,4 -4,0 0,-4z M49,41l4,0 0,4 -4,0 0,-4z M65,41l4,0 0,4 -4,0 0,-4z M93,41l4,0 0,4 -4,0 0,-4z M97,41l4,0 0,4 -4,0 0,-4z M113,41l4,0 0,4 -4,0 0,-4z M13,45l4,0 0,4 -4,0 0,-4z M17,45l4,0 0,4 -4,0 0,-4z M29,45l4,0 0,4 -4,0 0,-4z M33,45l4,0 0,4 -4,0 0,-4z M37,45l4,0 0,4 -4,0 0,-4z M49,45l4,0 0,4 -4,0 0,-4z M57,45l4,0 0,4 -4,0 0,-4z M69,45l4,0 0,4 -4,0 0,-4z M73,45l4,0 0,4 -4,0 0,-4z M81,45l4,0 0,4 -4,0 0,-4z M93,45l4,0 0,4 -4,0 0,-4z M5,49l4,0 0,4 -4,0 0,-4z M17,49l4,0 0,4 -4,0 0,-4z M25,49l4,0 0,4 -4,0 0,-4z M37,49l4,0 0,4 -4,0 0,-4z M41,49l4,0 0,4 -4,0 0,-4z M45,49l4,0 0,4 -4,0 0,-4z M53,49l4,0 0,4 -4,0 0,-4z M57,49l4,0 0,4 -4,0 0,-4z M61,49l4,0 0,4 -4,0 0,-4z M65,49l4,0 0,4 -4,0 0,-4z M77,49l4,0 0,4 -4,0 0,-4z M81,49l4,0 0,4 -4,0 0,-4z M85,49l4,0 0,4 -4,0 0,-4z M93,49l4,0 0,4 -4,0 0,-4z M97,49l4,0 0,4 -4,0 0,-4z M17,53l4,0 0,4 -4,0 0,-4z M33,53l4,0 0,4 -4,0 0,-4z M37,53l4,0 0,4 -4,0 0,-4z M41,53l4,0 0,4 -4,0 0,-4z M45,53l4,0 0,4 -4,0 0,-4z M49,53l4,0 0,4 -4,0 0,-4z M73,53l4,0 0,4 -4,0 0,-4z M77,53l4,0 0,4 -4,0 0,-4z M93,53l4,0 0,4 -4,0 0,-4z M97,53l4,0 0,4 -4,0 0,-4z M105,53l4,0 0,4 -4,0 0,-4z M1,57l4,0 0,4 -4,0 0,-4z M5,57l4,0 0,4 -4,0 0,-4z M9,57l4,0 0,4 -4,0 0,-4z M21,57l4,0 0,4 -4,0 0,-4z M25,57l4,0 0,4 -4,0 0,-4z M41,57l4,0 0,4 -4,0 0,-4z M45,57l4,0 0,4 -4,0 0,-4z M49,57l4,0 0,4 -4,0 0,-4z M53,57l4,0 0,4 -4,0 0,-4z M57,57l4,0 0,4 -4,0 0,-4z M61,57l4,0 0,4 -4,0 0,-4z M93,57l4,0 0,4 -4,0 0,-4z M113,57l4,0 0,4 -4,0 0,-4z M9,61l4,0 0,4 -4,0 0,-4z M21,61l4,0 0,4 -4,0 0,-4z M29,61l4,0 0,4 -4,0 0,-4z M33,61l4,0 0,4 -4,0 0,-4z M37,61l4,0 0,4 -4,0 0,-4z M49,61l4,0 0,4 -4,0 0,-4z M53,61l4,0 0,4 -4,0 0,-4z M61,61l4,0 0,4 -4,0 0,-4z M65,61l4,0 0,4 -4,0 0,-4z M69,61l4,0 0,4 -4,0 0,-4z M73,61l4,0 0,4 -4,0 0,-4z M77,61l4,0 0,4 -4,0 0,-4z M81,61l4,0 0,4 -4,0 0,-4z M93,61l4,0 0,4 -4,0 0,-4z M101,61l4,0 0,4 -4,0 0,-4z M1,65l4,0 0,4 -4,0 0,-4z M5,65l4,0 0,4 -4,0 0,-4z M13,65l4,0 0,4 -4,0 0,-4z M21,65l4,0 0,4 -4,0 0,-4z M25,65l4,0 0,4 -4,0 0,-4z M29,65l4,0 0,4 -4,0 0,-4z M37,65l4,0 0,4 -4,0 0,-4z M41,65l4,0 0,4 -4,0 0,-4z M49,65l4,0 0,4 -4,0 0,-4z M53,65l4,0 0,4 -4,0 0,-4z M69,65l4,0 0,4 -4,0 0,-4z M73,65l4,0 0,4 -4,0 0,-4z M81,65l4,0 0,4 -4,0 0,-4z M85,65l4,0 0,4 -4,0 0,-4z M105,65l4,0 0,4 -4,0 0,-4z M1,69l4,0 0,4 -4,0 0,-4z M5,69l4,0 0,4 -4,0 0,-4z M9,69l4,0 0,4 -4,0 0,-4z M37,69l4,0 0,4 -4,0 0,-4z M41,69l4,0 0,4 -4,0 0,-4z M45,69l4,0 0,4 -4,0 0,-4z M49,69l4,0 0,4 -4,0 0,-4z M53,69l4,0 0,4 -4,0 0,-4z M57,69l4,0 0,4 -4,0 0,-4z M65,69l4,0 0,4 -4,0 0,-4z M69,69l4,0 0,4 -4,0 0,-4z M73,69l4,0 0,4 -4,0 0,-4z M77,69l4,0 0,4 -4,0 0,-4z M97,69l4,0 0,4 -4,0 0,-4z M101,69l4,0 0,4 -4,0 0,-4z M105,69l4,0 0,4 -4,0 0,-4z M109,69l4,0 0,4 -4,0 0,-4z M9,73l4,0 0,4 -4,0 0,-4z M13,73l4,0 0,4 -4,0 0,-4z M17,73l4,0 0,4 -4,0 0,-4z M21,73l4,0 0,4 -4,0 0,-4z M25,73l4,0 0,4 -4,0 0,-4z M29,73l4,0 0,4 -4,0 0,-4z M41,73l4,0 0,4 -4,0 0,-4z M65,73l4,0 0,4 -4,0 0,-4z M69,73l4,0 0,4 -4,0 0,-4z M73,73l4,0 0,4 -4,0 0,-4z M81,73l4,0 0,4 -4,0 0,-4z M93,73l4,0 0,4 -4,0 0,-4z M101,73l4,0 0,4 -4,0 0,-4z M105,73l4,0 0,4 -4,0 0,-4z M113,73l4,0 0,4 -4,0 0,-4z M13,77l4,0 0,4 -4,0 0,-4z M17,77l4,0 0,4 -4,0 0,-4z M21,77l4,0 0,4 -4,0 0,-4z M33,77l4,0 0,4 -4,0 0,-4z M41,77l4,0 0,4 -4,0 0,-4z M45,77l4,0 0,4 -4,0 0,-4z M57,77l4,0 0,4 -4,0 0,-4z M69,77l4,0 0,4 -4,0 0,-4z M73,77l4,0 0,4 -4,0 0,-4z M89,77l4,0 0,4 -4,0 0,-4z M1,81l4,0 0,4 -4,0 0,-4z M5,81l4,0 0,4 -4,0 0,-4z M13,81l4,0 0,4 -4,0 0,-4z M17,81l4,0 0,4 -4,0 0,-4z M25,81l4,0 0,4 -4,0 0,-4z M33,81l4,0 0,4 -4,0 0,-4z M41,81l4,0 0,4 -4,0 0,-4z M53,81l4,0 0,4 -4,0 0,-4z M57,81l4,0 0,4 -4,0 0,-4z M61,81l4,0 0,4 -4,0 0,-4z M69,81l4,0 0,4 -4,0 0,-4z M73,81l4,0 0,4 -4,0 0,-4z M81,81l4,0 0,4 -4,0 0,-4z M85,81l4,0 0,4 -4,0 0,-4z M89,81l4,0 0,4 -4,0 0,-4z M93,81l4,0 0,4 -4,0 0,-4z M97,81l4,0 0,4 -4,0 0,-4z M101,81l4,0 0,4 -4,0 0,-4z M33,85l4,0 0,4 -4,0 0,-4z M37,85l4,0 0,4 -4,0 0,-4z M77,85l4,0 0,4 -4,0 0,-4z M81,85l4,0 0,4 -4,0 0,-4z M97,85l4,0 0,4 -4,0 0,-4z M101,85l4,0 0,4 -4,0 0,-4z M105,85l4,0 0,4 -4,0 0,-4z M109,85l4,0 0,4 -4,0 0,-4z M1,89l4,0 0,4 -4,0 0,-4z M5,89l4,0 0,4 -4,0 0,-4z M9,89l4,0 0,4 -4,0 0,-4z M13,89l4,0 0,4 -4,0 0,-4z M17,89l4,0 0,4 -4,0 0,-4z M21,89l4,0 0,4 -4,0 0,-4z M25,89l4,0 0,4 -4,0 0,-4z M33,89l4,0 0,4 -4,0 0,-4z M45,89l4,0 0,4 -4,0 0,-4z M53,89l4,0 0,4 -4,0 0,-4z M57,89l4,0 0,4 -4,0 0,-4z M61,89l4,0 0,4 -4,0 0,-4z M65,89l4,0 0,4 -4,0 0,-4z M69,89l4,0 0,4 -4,0 0,-4z M81,89l4,0 0,4 -4,0 0,-4z M89,89l4,0 0,4 -4,0 0,-4z M97,89l4,0 0,4 -4,0 0,-4z M113,89l4,0 0,4 -4,0 0,-4z M1,93l4,0 0,4 -4,0 0,-4z M25,93l4,0 0,4 -4,0 0,-4z M41,93l4,0 0,4 -4,0 0,-4z M53,93l4,0 0,4 -4,0 0,-4z M61,93l4,0 0,4 -4,0 0,-4z M69,93l4,0 0,4 -4,0 0,-4z M77,93l4,0 0,4 -4,0 0,-4z M81,93l4,0 0,4 -4,0 0,-4z M97,93l4,0 0,4 -4,0 0,-4z M101,93l4,0 0,4 -4,0 0,-4z M1,97l4,0 0,4 -4,0 0,-4z M9,97l4,0 0,4 -4,0 0,-4z M13,97l4,0 0,4 -4,0 0,-4z M17,97l4,0 0,4 -4,0 0,-4z M25,97l4,0 0,4 -4,0 0,-4z M33,97l4,0 0,4 -4,0 0,-4z M41,97l4,0 0,4 -4,0 0,-4z M45,97l4,0 0,4 -4,0 0,-4z M53,97l4,0 0,4 -4,0 0,-4z M65,97l4,0 0,4 -4,0 0,-4z M69,97l4,0 0,4 -4,0 0,-4z M73,97l4,0 0,4 -4,0 0,-4z M77,97l4,0 0,4 -4,0 0,-4z M81,97l4,0 0,4 -4,0 0,-4z M85,97l4,0 0,4 -4,0 0,-4z M89,97l4,0 0,4 -4,0 0,-4z M93,97l4,0 0,4 -4,0 0,-4z M97,97l4,0 0,4 -4,0 0,-4z M105,97l4,0 0,4 -4,0 0,-4z M109,97l4,0 0,4 -4,0 0,-4z M113,97l4,0 0,4 -4,0 0,-4z M1,101l4,0 0,4 -4,0 0,-4z M9,101l4,0 0,4 -4,0 0,-4z M13,101l4,0 0,4 -4,0 0,-4z M17,101l4,0 0,4 -4,0 0,-4z M25,101l4,0 0,4 -4,0 0,-4z M41,101l4,0 0,4 -4,0 0,-4z M49,101l4,0 0,4 -4,0 0,-4z M57,101l4,0 0,4 -4,0 0,-4z M61,101l4,0 0,4 -4,0 0,-4z M85,101l4,0 0,4 -4,0 0,-4z M97,101l4,0 0,4 -4,0 0,-4z M101,101l4,0 0,4 -4,0 0,-4z M105,101l4,0 0,4 -4,0 0,-4z M109,101l4,0 0,4 -4,0 0,-4z M1,105l4,0 0,4 -4,0 0,-4z M9,105l4,0 0,4 -4,0 0,-4z M13,105l4,0 0,4 -4,0 0,-4z M17,105l4,0 0,4 -4,0 0,-4z M25,105l4,0 0,4 -4,0 0,-4z M61,105l4,0 0,4 -4,0 0,-4z M69,105l4,0 0,4 -4,0 0,-4z M77,105l4,0 0,4 -4,0 0,-4z M105,105l4,0 0,4 -4,0 0,-4z M109,105l4,0 0,4 -4,0 0,-4z M113,105l4,0 0,4 -4,0 0,-4z M1,109l4,0 0,4 -4,0 0,-4z M25,109l4,0 0,4 -4,0 0,-4z M37,109l4,0 0,4 -4,0 0,-4z M41,109l4,0 0,4 -4,0 0,-4z M45,109l4,0 0,4 -4,0 0,-4z M49,109l4,0 0,4 -4,0 0,-4z M53,109l4,0 0,4 -4,0 0,-4z M57,109l4,0 0,4 -4,0 0,-4z M65,109l4,0 0,4 -4,0 0,-4z M69,109l4,0 0,4 -4,0 0,-4z M77,109l4,0 0,4 -4,0 0,-4z M93,109l4,0 0,4 -4,0 0,-4z M97,109l4,0 0,4 -4,0 0,-4z M109,109l4,0 0,4 -4,0 0,-4z M113,109l4,0 0,4 -4,0 0,-4z M1,113l4,0 0,4 -4,0 0,-4z M5,113l4,0 0,4 -4,0 0,-4z M9,113l4,0 0,4 -4,0 0,-4z M13,113l4,0 0,4 -4,0 0,-4z M17,113l4,0 0,4 -4,0 0,-4z M21,113l4,0 0,4 -4,0 0,-4z M25,113l4,0 0,4 -4,0 0,-4z M33,113l4,0 0,4 -4,0 0,-4z M45,113l4,0 0,4 -4,0 0,-4z M49,113l4,0 0,4 -4,0 0,-4z M65,113l4,0 0,4 -4,0 0,-4z M69,113l4,0 0,4 -4,0 0,-4z M73,113l4,0 0,4 -4,0 0,-4z M81,113l4,0 0,4 -4,0 0,-4z M93,113l4,0 0,4 -4,0 0,-4z M97,113l4,0 0,4 -4,0 0,-4z M101,113l4,0 0,4 -4,0 0,-4z M109,113l4,0 0,4 -4,0 0,-4z " stroke="transparent" fill="black"/></svg>