<svg version="1.1" xmlns="http://www.w3.org/2000/svg" width="134px" height="134px" viewBox="0 0 134 134"  preserveAspectRatio="xMinYMin meet"><rect width="100%" height="100%" fill="white" cx="0" cy="0"/><path d="M1,1l4,0 0,4 -4,0 0,-4z M5,1l4,0 0,4 -4,0 0,-4z M9,1l4,0 0,4 -4,0 0,-4z M13,1l4,0 0,4 -4,0 0,-4z M17,1l4,0 0,4 -4,0 0,-4z M21,1l4,0 0,4 -4,0 0,-4z M25,1l4,0 0,4 -4,0 0,-4z M33,1l4,0 0,4 -4,0 0,-4z M45,1l4,0 0,4 -4,0 0,-4z M61,1l4,0 0,4 -4,0 0,-4z M65,1l4,0 0,4 -4,0 0,-4z M77,1l4,0 0,4 -4,0 0,-4z M81,1l4,0 0,4 -4,0 0,-4z M85,1l4,0 0,4 -4,0 0,-4z M105,1l4,0 0,4 -4,0 0,-4z M109,1l4,0 0,4 -4,0 0,-4z M113,1l4,0 0,4 -4,0 0,-4z M117,1l4,0 0,4 -4,0 0,-4z M121,1l4,0 0,4 -4,0 0,-4z M125,1l4,0 0,4 -4,0 0,-4z M129,1l4,0 0,4 -4,0 0,-4z M1,5l4,0 0,4 -4,0 0,-4z M25,5l4,0 0,4 -4,0 0,-4z M33,5l4,0 0,4 -4,0 0,-4z M41,5l4,0 0,4 -4,0 0,-4z M45,5l4,0 0,4 -4,0 0,-4z M57,5l4,0 0,4 -4,0 0,-4z M69,5l4,0 0,4 -4,0 0,-4z M93,5l4,0 0,4 -4,0 0,-4z M97,5l4,0 0,4 -4,0 0,-4z M105,5l4,0 0,4 -4,0 0,-4z M129,5l4,0 0,4 -4,0 0,-4z M1,9l4,0 0,4 -4,0 0,-4z M9,9l4,0 0,4 -4,0 0,-4z M13,9l4,0 0,4 -4,0 0,-4z M17,9l4,0 0,4 -4,0 0,-4z M25,9l4,0 0,4 -4,0 0,-4z M49,9l4,0 0,4 -4,0 0,-4z M53,9l4,0 0,4 -4,0 0,-4z M57,9l4,0 0,4 -4,0 0,-4z M65,9l4,0 0,4 -4,0 0,-4z M73,9l4,0 0,4 -4,0 0,-4z M77,9l4,0 0,4 -4,0 0,-4z M81,9l4,0 0,4 -4,0 0,-4z M105,9l4,0 0,4 -4,0 0,-4z M113,9l4,0 0,4 -4,0 0,-4z M117,9l4,0 0,4 -4,0 0,-4z M121,9l4,0 0,4 -4,0 0,-4z M129,9l4,0 0,4 -4,0 0,-4z M1,13l4,0 0,4 -4,0 0,-4z M9,13l4,0 0,4 -4,0 0,-4z M13,13l4,0 0,4 -4,0 0,-4z M17,13l4,0 0,4 -4,0 0,-4z M25,13l4,0 0,4 -4,0 0,-4z M33,13l4,0 0,4 -4,0 0,-4z M37,13l4,0 0,4 -4,0 0,-4z M49,13l4,0 0,4 -4,0 0,-4z M61,13l4,0 0,4 -4,0 0,-4z M73,13l4,0 0,4 -4,0 0,-4z M77,13l4,0 0,4 -4,0 0,-4z M93,13l4,0 0,4 -4,0 0,-4z M105,13l4,0 0,4 -4,0 0,-4z M113,13l4,0 0,4 -4,0 0,-4z M117,13l4,0 0,4 -4,0 0,-4z M121,13l4,0 0,4 -4,0 0,-4z M129,13l4,0 0,4 -4,0 0,-4z M1,17l4,0 0,4 -4,0 0,-4z M9,17l4,0 0,4 -4,0 0,-4z M13,17l4,0 0,4 -4,0 0,-4z M17,17l4,0 0,4 -4,0 0,-4z M25,17l4,0 0,4 -4,0 0,-4z M37,17l4,0 0,4 -4,0 0,-4z M65,17l4,0 0,4 -4,0 0,-4z M73,17l4,0 0,4 -4,0 0,-4z M85,17l4,0 0,4 -4,0 0,-4z M89,17l4,0 0,4 -4,0 0,-4z M105,17l4,0 0,4 -4,0 0,-4z M113,17l4,0 0,4 -4,0 0,-4z M117,17l4,0 0,4 -4,0 0,-4z M121,17l4,0 0,4 -4,0 0,-4z M129,17l4,0 0,4 -4,0 0,-4z M1,21l4,0 0,4 -4,0 0,-4z M25,21l4,0 0,4 -4,0 0,-4z M41,21l4,0 0,4 -4,0 0,-4z M45,21l4,0 0,4 -4,0 0,-4z M53,21l4,0 0,4 -4,0 0,-4z M57,21l4,0 0,4 -4,0 0,-4z M61,21l4,0 0,4 -4,0 0,-4z M65,21l4,0 0,4 -4,0 0,-4z M73,21l4,0 0,4 -4,0 0,-4z M105,21l4,0 0,4 -4,0 0,-4z M129,21l4,0 0,4 -4,0 0,-4z M1,25l4,0 0,4 -4,0 0,-4z M5,25l4,0 0,4 -4,0 0,-4z M9,25l4,0 0,4 -4,0 0,-4z M13,25l4,0 0,4 -4,0 0,-4z M17,25l4,0 0,4 -4,0 0,-4z M21,25l4,0 0,4 -4,0 0,-4z M25,25l4,0 0,4 -4,0 0,-4z M33,25l4,0 0,4 -4,0 0,-4z M41,25l4,0 0,4 -4,0 0,-4z M49,25l4,0 0,4 -4,0 0,-4z M57,25l4,0 0,4 -4,0 0,-4z M65,25l4,0 0,4 -4,0 0,-4z M73,25l4,0 0,4 -4,0 0,-4z M81,25l4,0 0,4 -4,0 0,-4z M89,25l4,0 0,4 -4,0 0,-4z M97,25l4,0 0,4 -4,0 0,-4z M105,25l4,0 0,4 -4,0 0,-4z M109,25l4,0 0,4 -4,0 0,-4z M113,25l4,0 0,4 -4,0 0,-4z M117,25l4,0 0,4 -4,0 0,-4z M121,25l4,0 0,4 -4,0 0,-4z M125,25l4,0 0,4 -4,0 0,-4z M129,25l4,0 0,4 -4,0 0,-4z M33,29l4,0 0,4 -4,0 0,-4z M45,29l4,0 0,4 -4,0 0,-4z M57,29l4,0 0,4 -4,0 0,-4z M61,29l4,0 0,4 -4,0 0,-4z M65,29l4,0 0,4 -4,0 0,-4z M69,29l4,0 0,4 -4,0 0,-4z M77,29l4,0 0,4 -4,0 0,-4z M93,29l4,0 0,4 -4,0 0,-4z M1,33l4,0 0,4 -4,0 0,-4z M9,33l4,0 0,4 -4,0 0,-4z M13,33l4,0 0,4 -4,0 0,-4z M21,33l4,0 0,4 -4,0 0,-4z M25,33l4,0 0,4 -4,0 0,-4z M29,33l4,0 0,4 -4,0 0,-4z M41,33l4,0 0,4 -4,0 0,-4z M45,33l4,0 0,4 -4,0 0,-4z M49,33l4,0 0,4 -4,0 0,-4z M53,33l4,0 0,4 -4,0 0,-4z M57,33l4,0 0,4 -4,0 0,-4z M61,33l4,0 0,4 -4,0 0,-4z M65,33l4,0 0,4 -4,0 0,-4z M73,33l4,0 0,4 -4,0 0,-4z M105,33l4,0 0,4 -4,0 0,-4z M117,33l4,0 0,4 -4,0 0,-4z M125,33l4,0 0,4 -4,0 0,-4z M129,33l4,0 0,4 -4,0 0,-4z M5,37l4,0 0,4 -4,0 0,-4z M9,37l4,0 0,4 -4,0 0,-4z M13,37l4,0 0,4 -4,0 0,-4z M21,37l4,0 0,4 -4,0 0,-4z M41,37l4,0 0,4 -4,0 0,-4z M53,37l4,0 0,4 -4,0 0,-4z M69,37l4,0 0,4 -4,0 0,-4z M81,37l4,0 0,4 -4,0 0,-4z M85,37l4,0 0,4 -4,0 0,-4z M101,37l4,0 0,4 -4,0 0,-4z M121,37l4,0 0,4 -4,0 0,-4z M9,41l4,0 0,4 -4,0 0,-4z M17,41l4,0 0,4 -4,0 0,-4z M21,41l4,0 0,4 -4,0 0,-4z M25,41l4,0 0,4 -4,0 0,-4z M29,41l4,0 0,4 -4,0 0,-4z M33,41l4,0 0,4 -4,0 0,-4z M37,41l4,0 0,4 -4,0 0,-4z M45,41l4,0 0,4 -4,0 0,-4z M53,41l4,0 0,4 -4,0 0,-4z M65,41l4,0 0,4 -4,0 0,-4z M73,41l4,0 0,4 -4,0 0,-4z M93,41l4,0 0,4 -4,0 0,-4z M97,41l4,0 0,4 -4,0 0,-4z M101,41l4,0 0,4 -4,0 0,-4z M113,41l4,0 0,4 -4,0 0,-4z M121,41l4,0 0,4 -4,0 0,-4z M125,41l4,0 0,4 -4,0 0,-4z M129,41l4,0 0,4 -4,0 0,-4z M9,45l4,0 0,4 -4,0 0,-4z M17,45l4,0 0,4 -4,0 0,-4z M33,45l4,0 0,4 -4,0 0,-4z M37,45l4,0 0,4 -4,0 0,-4z M41,45l4,0 0,4 -4,0 0,-4z M45,45l4,0 0,4 -4,0 0,-4z M69,45l4,0 0,4 -4,0 0,-4z M81,45l4,0 0,4 -4,0 0,-4z M89,45l4,0 0,4 -4,0 0,-4z M93,45l4,0 0,4 -4,0 0,-4z M97,45l4,0 0,4 -4,0 0,-4z M101,45l4,0 0,4 -4,0 0,-4z M109,45l4,0 0,4 -4,0 0,-4z M117,45l4,0 0,4 -4,0 0,-4z M125,45l4,0 0,4 -4,0 0,-4z M17,49l4,0 0,4 -4,0 0,-4z M25,49l4,0 0,4 -4,0 0,-4z M29,49l4,0 0,4 -4,0 0,-4z M33,49l4,0 0,4 -4,0 0,-4z M41,49l4,0 0,4 -4,0 0,-4z M49,49l4,0 0,4 -4,0 0,-4z M57,49l4,0 0,4 -4,0 0,-4z M61,49l4,0 0,4 -4,0 0,-4z M65,49l4,0 0,4 -4,0 0,-4z M77,49l4,0 0,4 -4,0 0,-4z M81,49l4,0 0,4 -4,0 0,-4z M93,49l4,0 0,4 -4,0 0,-4z M101,49l4,0 0,4 -4,0 0,-4z M113,49l4,0 0,4 -4,0 0,-4z M121,49l4,0 0,4 -4,0 0,-4z M1,53l4,0 0,4 -4,0 0,-4z M5,53l4,0 0,4 -4,0 0,-4z M21,53l4,0 0,4 -4,0 0,-4z M37,53l4,0 0,4 -4,0 0,-4z M41,53l4,0 0,4 -4,0 0,-4z M45,53l4,0 0,4 -4,0 0,-4z M57,53l4,0 0,4 -4,0 0,-4z M69,53l4,0 0,4 -4,0 0,-4z M81,53l4,0 0,4 -4,0 0,-4z M89,53l4,0 0,4 -4,0 0,-4z M101,53l4,0 0,4 -4,0 0,-4z M105,53l4,0 0,4 -4,0 0,-4z M109,53l4,0 0,4 -4,0 0,-4z M125,53l4,0 0,4 -4,0 0,-4z M129,53l4,0 0,4 -4,0 0,-4z M25,57l4,0 0,4 -4,0 0,-4z M29,57l4,0 0,4 -4,0 0,-4z M33,57l4,0 0,4 -4,0 0,-4z M45,57l4,0 0,4 -4,0 0,-4z M57,57l4,0 0,4 -4,0 0,-4z M73,57l4,0 0,4 -4,0 0,-4z M77,57l4,0 0,4 -4,0 0,-4z M81,57l4,0 0,4 -4,0 0,-4z M97,57l4,0 0,4 -4,0 0,-4z M117,57l4,0 0,4 -4,0 0,-4z M1,61l4,0 0,4 -4,0 0,-4z M13,61l4,0 0,4 -4,0 0,-4z M17,61l4,0 0,4 -4,0 0,-4z M29,61l4,0 0,4 -4,0 0,-4z M33,61l4,0 0,4 -4,0 0,-4z M37,61l4,0 0,4 -4,0 0,-4z M45,61l4,0 0,4 -4,0 0,-4z M61,61l4,0 0,4 -4,0 0,-4z M73,61l4,0 0,4 -4,0 0,-4z M85,61l4,0 0,4 -4,0 0,-4z M89,61l4,0 0,4 -4,0 0,-4z M109,61l4,0 0,4 -4,0 0,-4z M117,61l4,0 0,4 -4,0 0,-4z M121,61l4,0 0,4 -4,0 0,-4z M125,61l4,0 0,4 -4,0 0,-4z M129,61l4,0 0,4 -4,0 0,-4z M9,65l4,0 0,4 -4,0 0,-4z M17,65l4,0 0,4 -4,0 0,-4z M21,65l4,0 0,4 -4,0 0,-4z M25,65l4,0 0,4 -4,0 0,-4z M37,65l4,0 0,4 -4,0 0,-4z M69,65l4,0 0,4 -4,0 0,-4z M73,65l4,0 0,4 -4,0 0,-4z M81,65l4,0 0,4 -4,0 0,-4z M89,65l4,0 0,4 -4,0 0,-4z M101,65l4,0 0,4 -4,0 0,-4z M105,65l4,0 0,4 -4,0 0,-4z M117,65l4,0 0,4 -4,0 0,-4z M129,65l4,0 0,4 -4,0 0,-4z M5,69l4,0 0,4 -4,0 0,-4z M21,69l4,0 0,4 -4,0 0,-4z M29,69l4,0 0,4 -4,0 0,-4z M33,69l4,0 0,4 -4,0 0,-4z M37,69l4,0 0,4 -4,0 0,-4z M45,69l4,0 0,4 -4,0 0,-4z M49,69l4,0 0,4 -4,0 0,-4z M53,69l4,0 0,4 -4,0 0,-4z M77,69l4,0 0,4 -4,0 0,-4z M81,69l4,0 0,4 -4,0 0,-4z M97,69l4,0 0,4 -4,0 0,-4z M109,69l4,0 0,4 -4,0 0,-4z M113,69l4,0 0,4 -4,0 0,-4z M9,73l4,0 0,4 -4,0 0,-4z M13,73l4,0 0,4 -4,0 0,-4z M17,73l4,0 0,4 -4,0 0,-4z M25,73l4,0 0,4 -4,0 0,-4z M29,73l4,0 0,4 -4,0 0,-4z M37,73l4,0 0,4 -4,0 0,-4z M53,73l4,0 0,4 -4,0 0,-4z M57,73l4,0 0,4 -4,0 0,-4z M61,73l4,0 0,4 -4,0 0,-4z M65,73l4,0 0,4 -4,0 0,-4z M73,73l4,0 0,4 -4,0 0,-4z M81,73l4,0 0,4 -4,0 0,-4z M89,73l4,0 0,4 -4,0 0,-4z M97,73l4,0 0,4 -4,0 0,-4z M117,73l4,0 0,4 -4,0 0,-4z M125,73l4,0 0,4 -4,0 0,-4z M1,77l4,0 0,4 -4,0 0,-4z M5,77l4,0 0,4 -4,0 0,-4z M13,77l4,0 0,4 -4,0 0,-4z M21,77l4,0 0,4 -4,0 0,-4z M33,77l4,0 0,4 -4,0 0,-4z M53,77l4,0 0,4 -4,0 0,-4z M65,77l4,0 0,4 -4,0 0,-4z M69,77l4,0 0,4 -4,0 0,-4z M73,77l4,0 0,4 -4,0 0,-4z M77,77l4,0 0,4 -4,0 0,-4z M93,77l4,0 0,4 -4,0 0,-4z M97,77l4,0 0,4 -4,0 0,-4z M101,77l4,0 0,4 -4,0 0,-4z M109,77l4,0 0,4 -4,0 0,-4z M125,77l4,0 0,4 -4,0 0,-4z M1,81l4,0 0,4 -4,0 0,-4z M9,81l4,0 0,4 -4,0 0,-4z M17,81l4,0 0,4 -4,0 0,-4z M21,81l4,0 0,4 -4,0 0,-4z M25,81l4,0 0,4 -4,0 0,-4z M29,81l4,0 0,4 -4,0 0,-4z M33,81l4,0 0,4 -4,0 0,-4z M41,81l4,0 0,4 -4,0 0,-4z M45,81l4,0 0,4 -4,0 0,-4z M49,81l4,0 0,4 -4,0 0,-4z M65,81l4,0 0,4 -4,0 0,-4z M89,81l4,0 0,4 -4,0 0,-4z M109,81l4,0 0,4 -4,0 0,-4z M113,81l4,0 0,4 -4,0 0,-4z M117,81l4,0 0,4 -4,0 0,-4z M121,81l4,0 0,4 -4,0 0,-4z M125,81l4,0 0,4 -4,0 0,-4z M1,85l4,0 0,4 -4,0 0,-4z M21,85l4,0 0,4 -4,0 0,-4z M41,85l4,0 0,4 -4,0 0,-4z M49,85l4,0 0,4 -4,0 0,-4z M53,85l4,0 0,4 -4,0 0,-4z M61,85l4,0 0,4 -4,0 0,-4z M65,85l4,0 0,4 -4,0 0,-4z M69,85l4,0 0,4 -4,0 0,-4z M81,85l4,0 0,4 -4,0 0,-4z M85,85l4,0 0,4 -4,0 0,-4z M93,85l4,0 0,4 -4,0 0,-4z M97,85l4,0 0,4 -4,0 0,-4z M101,85l4,0 0,4 -4,0 0,-4z M117,85l4,0 0,4 -4,0 0,-4z M125,85l4,0 0,4 -4,0 0,-4z M9,89l4,0 0,4 -4,0 0,-4z M13,89l4,0 0,4 -4,0 0,-4z M17,89l4,0 0,4 -4,0 0,-4z M25,89l4,0 0,4 -4,0 0,-4z M33,89l4,0 0,4 -4,0 0,-4z M49,89l4,0 0,4 -4,0 0,-4z M53,89l4,0 0,4 -4,0 0,-4z M61,89l4,0 0,4 -4,0 0,-4z M69,89l4,0 0,4 -4,0 0,-4z M77,89l4,0 0,4 -4,0 0,-4z M81,89l4,0 0,4 -4,0 0,-4z M89,89l4,0 0,4 -4,0 0,-4z M93,89l4,0 0,4 -4,0 0,-4z M97,89l4,0 0,4 -4,0 0,-4z M105,89l4,0 0,4 -4,0 0,-4z M109,89l4,0 0,4 -4,0 0,-4z M117,89l4,0 0,4 -4,0 0,-4z M121,89l4,0 0,4 -4,0 0,-4z M125,89l4,0 0,4 -4,0 0,-4z M129,89l4,0 0,4 -4,0 0,-4z M5,93l4,0 0,4 -4,0 0,-4z M29,93l4,0 0,4 -4,0 0,-4z M45,93l4,0 0,4 -4,0 0,-4z M53,93l4,0 0,4 -4,0 0,-4z M61,93l4,0 0,4 -4,0 0,-4z M73,93l4,0 0,4 -4,0 0,-4z M81,93l4,0 0,4 -4,0 0,-4z M89,93l4,0 0,4 -4,0 0,-4z M93,93l4,0 0,4 -4,0 0,-4z M105,93l4,0 0,4 -4,0 0,-4z M109,93l4,0 0,4 -4,0 0,-4z M113,93l4,0 0,4 -4,0 0,-4z M117,93l4,0 0,4 -4,0 0,-4z M129,93l4,0 0,4 -4,0 0,-4z M1,97l4,0 0,4 -4,0 0,-4z M17,97l4,0 0,4 -4,0 0,-4z M25,97l4,0 0,4 -4,0 0,-4z M33,97l4,0 0,4 -4,0 0,-4z M37,97l4,0 0,4 -4,0 0,-4z M45,97l4,0 0,4 -4,0 0,-4z M49,97l4,0 0,4 -4,0 0,-4z M53,97l4,0 0,4 -4,0 0,-4z M57,97l4,0 0,4 -4,0 0,-4z M65,97l4,0 0,4 -4,0 0,-4z M77,97l4,0 0,4 -4,0 0,-4z M97,97l4,0 0,4 -4,0 0,-4z M101,97l4,0 0,4 -4,0 0,-4z M105,97l4,0 0,4 -4,0 0,-4z M109,97l4,0 0,4 -4,0 0,-4z M113,97l4,0 0,4 -4,0 0,-4z M117,97l4,0 0,4 -4,0 0,-4z M121,97l4,0 0,4 -4,0 0,-4z M125,97l4,0 0,4 -4,0 0,-4z M129,97l4,0 0,4 -4,0 0,-4z M33,101l4,0 0,4 -4,0 0,-4z M53,101l4,0 0,4 -4,0 0,-4z M65,101l4,0 0,4 -4,0 0,-4z M73,101l4,0 0,4 -4,0 0,-4z M85,101l4,0 0,4 -4,0 0,-4z M97,101l4,0 0,4 -4,0 0,-4z M113,101l4,0 0,4 -4,0 0,-4z M121,101l4,0 0,4 -4,0 0,-4z M125,101l4,0 0,4 -4,0 0,-4z M129,101l4,0 0,4 -4,0 0,-4z M1,105l4,0 0,4 -4,0 0,-4z M5,105l4,0 0,4 -4,0 0,-4z M9,105l4,0 0,4 -4,0 0,-4z M13,105l4,0 0,4 -4,0 0,-4z M17,105l4,0 0,4 -4,0 0,-4z M21,105l4,0 0,4 -4,0 0,-4z M25,105l4,0 0,4 -4,0 0,-4z M33,105l4,0 0,4 -4,0 0,-4z M53,105l4,0 0,4 -4,0 0,-4z M57,105l4,0 0,4 -4,0 0,-4z M69,105l4,0 0,4 -4,0 0,-4z M73,105l4,0 0,4 -4,0 0,-4z M77,105l4,0 0,4 -4,0 0,-4z M85,105l4,0 0,4 -4,0 0,-4z M97,105l4,0 0,4 -4,0 0,-4z M105,105l4,0 0,4 -4,0 0,-4z M113,105l4,0 0,4 -4,0 0,-4z M1,109l4,0 0,4 -4,0 0,-4z M25,109l4,0 0,4 -4,0 0,-4z M33,109l4,0 0,4 -4,0 0,-4z M45,109l4,0 0,4 -4,0 0,-4z M53,109l4,0 0,4 -4,0 0,-4z M57,109l4,0 0,4 -4,0 0,-4z M69,109l4,0 0,4 -4,0 0,-4z M73,109l4,0 0,4 -4,0 0,-4z M77,109l4,0 0,4 -4,0 0,-4z M93,109l4,0 0,4 -4,0 0,-4z M97,109l4,0 0,4 -4,0 0,-4z M113,109l4,0 0,4 -4,0 0,-4z M117,109l4,0 0,4 -4,0 0,-4z M121,109l4,0 0,4 -4,0 0,-4z M125,109l4,0 0,4 -4,0 0,-4z M1,113l4,0 0,4 -4,0 0,-4z M9,113l4,0 0,4 -4,0 0,-4z M13,113l4,0 0,4 -4,0 0,-4z M17,113l4,0 0,4 -4,0 0,-4z M25,113l4,0 0,4 -4,0 0,-4z M37,113l4,0 0,4 -4,0 0,-4z M41,113l4,0 0,4 -4,0 0,-4z M53,113l4,0 0,4 -4,0 0,-4z M65,113l4,0 0,4 -4,0 0,-4z M69,113l4,0 0,4 -4,0 0,-4z M73,113l4,0 0,4 -4,0 0,-4z M89,113l4,0 0,4 -4,0 0,-4z M93,113l4,0 0,4 -4,0 0,-4z M97,113l4,0 0,4 -4,0 0,-4z M101,113l4,0 0,4 -4,0 0,-4z M105,113l4,0 0,4 -4,0 0,-4z M109,113l4,0 0,4 -4,0 0,-4z M113,113l4,0 0,4 -4,0 0,-4z M117,113l4,0 0,4 -4,0 0,-4z M1,117l4,0 0,4 -4,0 0,-4z M9,117l4,0 0,4 -4,0 0,-4z M13,117l4,0 0,4 -4,0 0,-4z M17,117l4,0 0,4 -4,0 0,-4z M25,117l4,0 0,4 -4,0 0,-4z M33,117l4,0 0,4 -4,0 0,-4z M41,117l4,0 0,4 -4,0 0,-4z M45,117l4,0 0,4 -4,0 0,-4z M53,117l4,0 0,4 -4,0 0,-4z M65,117l4,0 0,4 -4,0 0,-4z M77,117l4,0 0,4 -4,0 0,-4z M89,117l4,0 0,4 -4,0 0,-4z M101,117l4,0 0,4 -4,0 0,-4z M113,117l4,0 0,4 -4,0 0,-4z M125,117l4,0 0,4 -4,0 0,-4z M129,117l4,0 0,4 -4,0 0,-4z M1,121l4,0 0,4 -4,0 0,-4z M9,121l4,0 0,4 -4,0 0,-4z M13,121l4,0 0,4 -4,0 0,-4z M17,121l4,0 0,4 -4,0 0,-4z M25,121l4,0 0,4 -4,0 0,-4z M33,121l4,0 0,4 -4,0 0,-4z M37,121l4,0 0,4 -4,0 0,-4z M53,121l4,0 0,4 -4,0 0,-4z M57,121l4,0 0,4 -4,0 0,-4z M61,121l4,0 0,4 -4,0 0,-4z M65,121l4,0 0,4 -4,0 0,-4z M69,121l4,0 0,4 -4,0 0,-4z M73,121l4,0 0,4 -4,0 0,-4z M81,121l4,0 0,4 -4,0 0,-4z M85,121l4,0 0,4 -4,0 0,-4z M97,121l4,0 0,4 -4,0 0,-4z M105,121l4,0 0,4 -4,0 0,-4z M117,121l4,0 0,4 -4,0 0,-4z M1,125l4,0 0,4 -4,0 0,-4z M25,125l4,0 0,4 -4,0 0,-4z M41,125l4,0 0,4 -4,0 0,-4z M45,125l4,0 0,4 -4,0 0,-4z M53,125l4,0 0,4 -4,0 0,-4z M69,125l4,0 0,4 -4,0 0,-4z M73,125l4,0 0,4 -4,0 0,-4z M81,125l4,0 0,4 -4,0 0,-4z M93,125l4,0 0,4 -4,0 0,-4z M105,125l4,0 0,4 -4,0 0,-4z M109,125l4,0 0,4 -4,0 0,-4z M113,125l4,0 0,4 -4,0 0,-4z M129,125l4,0 0,4 -4,0 0,-4z M1,129l4,0 0,4 -4,0 0,-4z M5,129l4,0 0,4 -4,0 0,-4z M9,129l4,0 0,4 -4,0 0,-4z M13,129l4,0 0,4 -4,0 0,-4z M17,129l4,0 0,4 -4,0 0,-4z M21,129l4,0 0,4 -4,0 0,-4z M25,129l4,0 0,4 -4,0 0,-4z M33,129l4,0 0,4 -4,0 0,-4z M37,129l4,0 0,4 -4,0 0,-4z M41,129l4,0 0,4 -4,0 0,-4z M45,129l4,0 0,4 -4,0 0,-4z M49,129l4,0 0,4 -4,0 0,-4z M73,129l4,0 0,4 -4,0 0,-4z M77,129l4,0 0,4 -4,0 0,-4z M81,129l4,0 0,4 -4,0 0,-4z M93,129l4,0 0,4 -4,0 0,-4z M105,129l4,0 0,4 -4,0 0,-4z M109,129l4,0 0,4 -4,0 0,-4z M113,129l4,0 0,4 -4,0 0,-4z " stroke="transparent" fill="black"/></svg>