<svg version="1.1" xmlns="http://www.w3.org/2000/svg" width="118px" height="118px" viewBox="0 0 118 118"  preserveAspectRatio="xMinYMin meet"><rect width="100%" height="100%" fill="white" cx="0" cy="0"/><path d="M1,1l4,0 0,4 -4,0 0,-4z M5,1l4,0 0,4 -4,0 0,-4z M9,1l4,0 0,4 -4,0 0,-4z M13,1l4,0 0,4 -4,0 0,-4z M17,1l4,0 0,4 -4,0 0,-4z M21,1l4,0 0,4 -4,0 0,-4z M25,1l4,0 0,4 -4,0 0,-4z M33,1l4,0 0,4 -4,0 0,-4z M53,1l4,0 0,4 -4,0 0,-4z M65,1l4,0 0,4 -4,0 0,-4z M69,1l4,0 0,4 -4,0 0,-4z M73,1l4,0 0,4 -4,0 0,-4z M77,1l4,0 0,4 -4,0 0,-4z M89,1l4,0 0,4 -4,0 0,-4z M93,1l4,0 0,4 -4,0 0,-4z M97,1l4,0 0,4 -4,0 0,-4z M101,1l4,0 0,4 -4,0 0,-4z M105,1l4,0 0,4 -4,0 0,-4z M109,1l4,0 0,4 -4,0 0,-4z M113,1l4,0 0,4 -4,0 0,-4z M1,5l4,0 0,4 -4,0 0,-4z M25,5l4,0 0,4 -4,0 0,-4z M33,5l4,0 0,4 -4,0 0,-4z M37,5l4,0 0,4 -4,0 0,-4z M41,5l4,0 0,4 -4,0 0,-4z M53,5l4,0 0,4 -4,0 0,-4z M57,5l4,0 0,4 -4,0 0,-4z M65,5l4,0 0,4 -4,0 0,-4z M77,5l4,0 0,4 -4,0 0,-4z M81,5l4,0 0,4 -4,0 0,-4z M89,5l4,0 0,4 -4,0 0,-4z M113,5l4,0 0,4 -4,0 0,-4z M1,9l4,0 0,4 -4,0 0,-4z M9,9l4,0 0,4 -4,0 0,-4z M13,9l4,0 0,4 -4,0 0,-4z M17,9l4,0 0,4 -4,0 0,-4z M25,9l4,0 0,4 -4,0 0,-4z M33,9l4,0 0,4 -4,0 0,-4z M37,9l4,0 0,4 -4,0 0,-4z M41,9l4,0 0,4 -4,0 0,-4z M45,9l4,0 0,4 -4,0 0,-4z M53,9l4,0 0,4 -4,0 0,-4z M61,9l4,0 0,4 -4,0 0,-4z M73,9l4,0 0,4 -4,0 0,-4z M81,9l4,0 0,4 -4,0 0,-4z M89,9l4,0 0,4 -4,0 0,-4z M97,9l4,0 0,4 -4,0 0,-4z M101,9l4,0 0,4 -4,0 0,-4z M105,9l4,0 0,4 -4,0 0,-4z M113,9l4,0 0,4 -4,0 0,-4z M1,13l4,0 0,4 -4,0 0,-4z M9,13l4,0 0,4 -4,0 0,-4z M13,13l4,0 0,4 -4,0 0,-4z M17,13l4,0 0,4 -4,0 0,-4z M25,13l4,0 0,4 -4,0 0,-4z M45,13l4,0 0,4 -4,0 0,-4z M53,13l4,0 0,4 -4,0 0,-4z M57,13l4,0 0,4 -4,0 0,-4z M61,13l4,0 0,4 -4,0 0,-4z M65,13l4,0 0,4 -4,0 0,-4z M69,13l4,0 0,4 -4,0 0,-4z M73,13l4,0 0,4 -4,0 0,-4z M77,13l4,0 0,4 -4,0 0,-4z M81,13l4,0 0,4 -4,0 0,-4z M89,13l4,0 0,4 -4,0 0,-4z M97,13l4,0 0,4 -4,0 0,-4z M101,13l4,0 0,4 -4,0 0,-4z M105,13l4,0 0,4 -4,0 0,-4z M113,13l4,0 0,4 -4,0 0,-4z M1,17l4,0 0,4 -4,0 0,-4z M9,17l4,0 0,4 -4,0 0,-4z M13,17l4,0 0,4 -4,0 0,-4z M17,17l4,0 0,4 -4,0 0,-4z M25,17l4,0 0,4 -4,0 0,-4z M33,17l4,0 0,4 -4,0 0,-4z M37,17l4,0 0,4 -4,0 0,-4z M41,17l4,0 0,4 -4,0 0,-4z M45,17l4,0 0,4 -4,0 0,-4z M69,17l4,0 0,4 -4,0 0,-4z M73,17l4,0 0,4 -4,0 0,-4z M89,17l4,0 0,4 -4,0 0,-4z M97,17l4,0 0,4 -4,0 0,-4z M101,17l4,0 0,4 -4,0 0,-4z M105,17l4,0 0,4 -4,0 0,-4z M113,17l4,0 0,4 -4,0 0,-4z M1,21l4,0 0,4 -4,0 0,-4z M25,21l4,0 0,4 -4,0 0,-4z M69,21l4,0 0,4 -4,0 0,-4z M73,21l4,0 0,4 -4,0 0,-4z M81,21l4,0 0,4 -4,0 0,-4z M89,21l4,0 0,4 -4,0 0,-4z M113,21l4,0 0,4 -4,0 0,-4z M1,25l4,0 0,4 -4,0 0,-4z M5,25l4,0 0,4 -4,0 0,-4z M9,25l4,0 0,4 -4,0 0,-4z M13,25l4,0 0,4 -4,0 0,-4z M17,25l4,0 0,4 -4,0 0,-4z M21,25l4,0 0,4 -4,0 0,-4z M25,25l4,0 0,4 -4,0 0,-4z M33,25l4,0 0,4 -4,0 0,-4z M41,25l4,0 0,4 -4,0 0,-4z M49,25l4,0 0,4 -4,0 0,-4z M57,25l4,0 0,4 -4,0 0,-4z M65,25l4,0 0,4 -4,0 0,-4z M73,25l4,0 0,4 -4,0 0,-4z M81,25l4,0 0,4 -4,0 0,-4z M89,25l4,0 0,4 -4,0 0,-4z M93,25l4,0 0,4 -4,0 0,-4z M97,25l4,0 0,4 -4,0 0,-4z M101,25l4,0 0,4 -4,0 0,-4z M105,25l4,0 0,4 -4,0 0,-4z M109,25l4,0 0,4 -4,0 0,-4z M113,25l4,0 0,4 -4,0 0,-4z M37,29l4,0 0,4 -4,0 0,-4z M41,29l4,0 0,4 -4,0 0,-4z M45,29l4,0 0,4 -4,0 0,-4z M53,29l4,0 0,4 -4,0 0,-4z M57,29l4,0 0,4 -4,0 0,-4z M61,29l4,0 0,4 -4,0 0,-4z M73,29l4,0 0,4 -4,0 0,-4z M77,29l4,0 0,4 -4,0 0,-4z M81,29l4,0 0,4 -4,0 0,-4z M1,33l4,0 0,4 -4,0 0,-4z M13,33l4,0 0,4 -4,0 0,-4z M17,33l4,0 0,4 -4,0 0,-4z M21,33l4,0 0,4 -4,0 0,-4z M25,33l4,0 0,4 -4,0 0,-4z M29,33l4,0 0,4 -4,0 0,-4z M33,33l4,0 0,4 -4,0 0,-4z M45,33l4,0 0,4 -4,0 0,-4z M61,33l4,0 0,4 -4,0 0,-4z M65,33l4,0 0,4 -4,0 0,-4z M77,33l4,0 0,4 -4,0 0,-4z M85,33l4,0 0,4 -4,0 0,-4z M97,33l4,0 0,4 -4,0 0,-4z M105,33l4,0 0,4 -4,0 0,-4z M109,33l4,0 0,4 -4,0 0,-4z M113,33l4,0 0,4 -4,0 0,-4z M17,37l4,0 0,4 -4,0 0,-4z M33,37l4,0 0,4 -4,0 0,-4z M37,37l4,0 0,4 -4,0 0,-4z M41,37l4,0 0,4 -4,0 0,-4z M45,37l4,0 0,4 -4,0 0,-4z M85,37l4,0 0,4 -4,0 0,-4z M93,37l4,0 0,4 -4,0 0,-4z M97,37l4,0 0,4 -4,0 0,-4z M101,37l4,0 0,4 -4,0 0,-4z M109,37l4,0 0,4 -4,0 0,-4z M1,41l4,0 0,4 -4,0 0,-4z M9,41l4,0 0,4 -4,0 0,-4z M13,41l4,0 0,4 -4,0 0,-4z M25,41l4,0 0,4 -4,0 0,-4z M33,41l4,0 0,4 -4,0 0,-4z M41,41l4,0 0,4 -4,0 0,-4z M53,41l4,0 0,4 -4,0 0,-4z M61,41l4,0 0,4 -4,0 0,-4z M65,41l4,0 0,4 -4,0 0,-4z M73,41l4,0 0,4 -4,0 0,-4z M81,41l4,0 0,4 -4,0 0,-4z M89,41l4,0 0,4 -4,0 0,-4z M97,41l4,0 0,4 -4,0 0,-4z M105,41l4,0 0,4 -4,0 0,-4z M1,45l4,0 0,4 -4,0 0,-4z M5,45l4,0 0,4 -4,0 0,-4z M9,45l4,0 0,4 -4,0 0,-4z M13,45l4,0 0,4 -4,0 0,-4z M17,45l4,0 0,4 -4,0 0,-4z M21,45l4,0 0,4 -4,0 0,-4z M29,45l4,0 0,4 -4,0 0,-4z M33,45l4,0 0,4 -4,0 0,-4z M41,45l4,0 0,4 -4,0 0,-4z M49,45l4,0 0,4 -4,0 0,-4z M61,45l4,0 0,4 -4,0 0,-4z M65,45l4,0 0,4 -4,0 0,-4z M69,45l4,0 0,4 -4,0 0,-4z M77,45l4,0 0,4 -4,0 0,-4z M89,45l4,0 0,4 -4,0 0,-4z M101,45l4,0 0,4 -4,0 0,-4z M109,45l4,0 0,4 -4,0 0,-4z M1,49l4,0 0,4 -4,0 0,-4z M5,49l4,0 0,4 -4,0 0,-4z M25,49l4,0 0,4 -4,0 0,-4z M29,49l4,0 0,4 -4,0 0,-4z M41,49l4,0 0,4 -4,0 0,-4z M45,49l4,0 0,4 -4,0 0,-4z M49,49l4,0 0,4 -4,0 0,-4z M57,49l4,0 0,4 -4,0 0,-4z M61,49l4,0 0,4 -4,0 0,-4z M69,49l4,0 0,4 -4,0 0,-4z M77,49l4,0 0,4 -4,0 0,-4z M89,49l4,0 0,4 -4,0 0,-4z M93,49l4,0 0,4 -4,0 0,-4z M97,49l4,0 0,4 -4,0 0,-4z M105,49l4,0 0,4 -4,0 0,-4z M109,49l4,0 0,4 -4,0 0,-4z M113,49l4,0 0,4 -4,0 0,-4z M1,53l4,0 0,4 -4,0 0,-4z M5,53l4,0 0,4 -4,0 0,-4z M37,53l4,0 0,4 -4,0 0,-4z M41,53l4,0 0,4 -4,0 0,-4z M65,53l4,0 0,4 -4,0 0,-4z M69,53l4,0 0,4 -4,0 0,-4z M73,53l4,0 0,4 -4,0 0,-4z M77,53l4,0 0,4 -4,0 0,-4z M93,53l4,0 0,4 -4,0 0,-4z M97,53l4,0 0,4 -4,0 0,-4z M101,53l4,0 0,4 -4,0 0,-4z M105,53l4,0 0,4 -4,0 0,-4z M5,57l4,0 0,4 -4,0 0,-4z M9,57l4,0 0,4 -4,0 0,-4z M13,57l4,0 0,4 -4,0 0,-4z M21,57l4,0 0,4 -4,0 0,-4z M25,57l4,0 0,4 -4,0 0,-4z M29,57l4,0 0,4 -4,0 0,-4z M33,57l4,0 0,4 -4,0 0,-4z M41,57l4,0 0,4 -4,0 0,-4z M45,57l4,0 0,4 -4,0 0,-4z M49,57l4,0 0,4 -4,0 0,-4z M53,57l4,0 0,4 -4,0 0,-4z M61,57l4,0 0,4 -4,0 0,-4z M73,57l4,0 0,4 -4,0 0,-4z M77,57l4,0 0,4 -4,0 0,-4z M89,57l4,0 0,4 -4,0 0,-4z M93,57l4,0 0,4 -4,0 0,-4z M101,57l4,0 0,4 -4,0 0,-4z M113,57l4,0 0,4 -4,0 0,-4z M5,61l4,0 0,4 -4,0 0,-4z M29,61l4,0 0,4 -4,0 0,-4z M41,61l4,0 0,4 -4,0 0,-4z M49,61l4,0 0,4 -4,0 0,-4z M61,61l4,0 0,4 -4,0 0,-4z M65,61l4,0 0,4 -4,0 0,-4z M77,61l4,0 0,4 -4,0 0,-4z M81,61l4,0 0,4 -4,0 0,-4z M93,61l4,0 0,4 -4,0 0,-4z M101,61l4,0 0,4 -4,0 0,-4z M105,61l4,0 0,4 -4,0 0,-4z M109,61l4,0 0,4 -4,0 0,-4z M9,65l4,0 0,4 -4,0 0,-4z M13,65l4,0 0,4 -4,0 0,-4z M25,65l4,0 0,4 -4,0 0,-4z M29,65l4,0 0,4 -4,0 0,-4z M33,65l4,0 0,4 -4,0 0,-4z M41,65l4,0 0,4 -4,0 0,-4z M49,65l4,0 0,4 -4,0 0,-4z M57,65l4,0 0,4 -4,0 0,-4z M61,65l4,0 0,4 -4,0 0,-4z M65,65l4,0 0,4 -4,0 0,-4z M69,65l4,0 0,4 -4,0 0,-4z M81,65l4,0 0,4 -4,0 0,-4z M93,65l4,0 0,4 -4,0 0,-4z M97,65l4,0 0,4 -4,0 0,-4z M105,65l4,0 0,4 -4,0 0,-4z M109,65l4,0 0,4 -4,0 0,-4z M1,69l4,0 0,4 -4,0 0,-4z M37,69l4,0 0,4 -4,0 0,-4z M41,69l4,0 0,4 -4,0 0,-4z M53,69l4,0 0,4 -4,0 0,-4z M73,69l4,0 0,4 -4,0 0,-4z M81,69l4,0 0,4 -4,0 0,-4z M89,69l4,0 0,4 -4,0 0,-4z M97,69l4,0 0,4 -4,0 0,-4z M109,69l4,0 0,4 -4,0 0,-4z M113,69l4,0 0,4 -4,0 0,-4z M1,73l4,0 0,4 -4,0 0,-4z M5,73l4,0 0,4 -4,0 0,-4z M9,73l4,0 0,4 -4,0 0,-4z M17,73l4,0 0,4 -4,0 0,-4z M25,73l4,0 0,4 -4,0 0,-4z M33,73l4,0 0,4 -4,0 0,-4z M37,73l4,0 0,4 -4,0 0,-4z M61,73l4,0 0,4 -4,0 0,-4z M65,73l4,0 0,4 -4,0 0,-4z M69,73l4,0 0,4 -4,0 0,-4z M77,73l4,0 0,4 -4,0 0,-4z M81,73l4,0 0,4 -4,0 0,-4z M85,73l4,0 0,4 -4,0 0,-4z M89,73l4,0 0,4 -4,0 0,-4z M113,73l4,0 0,4 -4,0 0,-4z M1,77l4,0 0,4 -4,0 0,-4z M5,77l4,0 0,4 -4,0 0,-4z M9,77l4,0 0,4 -4,0 0,-4z M13,77l4,0 0,4 -4,0 0,-4z M17,77l4,0 0,4 -4,0 0,-4z M21,77l4,0 0,4 -4,0 0,-4z M29,77l4,0 0,4 -4,0 0,-4z M41,77l4,0 0,4 -4,0 0,-4z M49,77l4,0 0,4 -4,0 0,-4z M57,77l4,0 0,4 -4,0 0,-4z M65,77l4,0 0,4 -4,0 0,-4z M77,77l4,0 0,4 -4,0 0,-4z M81,77l4,0 0,4 -4,0 0,-4z M85,77l4,0 0,4 -4,0 0,-4z M93,77l4,0 0,4 -4,0 0,-4z M105,77l4,0 0,4 -4,0 0,-4z M109,77l4,0 0,4 -4,0 0,-4z M113,77l4,0 0,4 -4,0 0,-4z M1,81l4,0 0,4 -4,0 0,-4z M5,81l4,0 0,4 -4,0 0,-4z M13,81l4,0 0,4 -4,0 0,-4z M21,81l4,0 0,4 -4,0 0,-4z M25,81l4,0 0,4 -4,0 0,-4z M29,81l4,0 0,4 -4,0 0,-4z M37,81l4,0 0,4 -4,0 0,-4z M45,81l4,0 0,4 -4,0 0,-4z M53,81l4,0 0,4 -4,0 0,-4z M57,81l4,0 0,4 -4,0 0,-4z M77,81l4,0 0,4 -4,0 0,-4z M81,81l4,0 0,4 -4,0 0,-4z M85,81l4,0 0,4 -4,0 0,-4z M89,81l4,0 0,4 -4,0 0,-4z M93,81l4,0 0,4 -4,0 0,-4z M97,81l4,0 0,4 -4,0 0,-4z M101,81l4,0 0,4 -4,0 0,-4z M109,81l4,0 0,4 -4,0 0,-4z M113,81l4,0 0,4 -4,0 0,-4z M33,85l4,0 0,4 -4,0 0,-4z M41,85l4,0 0,4 -4,0 0,-4z M49,85l4,0 0,4 -4,0 0,-4z M57,85l4,0 0,4 -4,0 0,-4z M61,85l4,0 0,4 -4,0 0,-4z M81,85l4,0 0,4 -4,0 0,-4z M97,85l4,0 0,4 -4,0 0,-4z M105,85l4,0 0,4 -4,0 0,-4z M109,85l4,0 0,4 -4,0 0,-4z M113,85l4,0 0,4 -4,0 0,-4z M1,89l4,0 0,4 -4,0 0,-4z M5,89l4,0 0,4 -4,0 0,-4z M9,89l4,0 0,4 -4,0 0,-4z M13,89l4,0 0,4 -4,0 0,-4z M17,89l4,0 0,4 -4,0 0,-4z M21,89l4,0 0,4 -4,0 0,-4z M25,89l4,0 0,4 -4,0 0,-4z M33,89l4,0 0,4 -4,0 0,-4z M45,89l4,0 0,4 -4,0 0,-4z M49,89l4,0 0,4 -4,0 0,-4z M57,89l4,0 0,4 -4,0 0,-4z M61,89l4,0 0,4 -4,0 0,-4z M69,89l4,0 0,4 -4,0 0,-4z M73,89l4,0 0,4 -4,0 0,-4z M77,89l4,0 0,4 -4,0 0,-4z M81,89l4,0 0,4 -4,0 0,-4z M89,89l4,0 0,4 -4,0 0,-4z M97,89l4,0 0,4 -4,0 0,-4z M101,89l4,0 0,4 -4,0 0,-4z M1,93l4,0 0,4 -4,0 0,-4z M25,93l4,0 0,4 -4,0 0,-4z M33,93l4,0 0,4 -4,0 0,-4z M37,93l4,0 0,4 -4,0 0,-4z M41,93l4,0 0,4 -4,0 0,-4z M45,93l4,0 0,4 -4,0 0,-4z M49,93l4,0 0,4 -4,0 0,-4z M57,93l4,0 0,4 -4,0 0,-4z M65,93l4,0 0,4 -4,0 0,-4z M69,93l4,0 0,4 -4,0 0,-4z M73,93l4,0 0,4 -4,0 0,-4z M81,93l4,0 0,4 -4,0 0,-4z M97,93l4,0 0,4 -4,0 0,-4z M113,93l4,0 0,4 -4,0 0,-4z M1,97l4,0 0,4 -4,0 0,-4z M9,97l4,0 0,4 -4,0 0,-4z M13,97l4,0 0,4 -4,0 0,-4z M17,97l4,0 0,4 -4,0 0,-4z M25,97l4,0 0,4 -4,0 0,-4z M33,97l4,0 0,4 -4,0 0,-4z M41,97l4,0 0,4 -4,0 0,-4z M49,97l4,0 0,4 -4,0 0,-4z M53,97l4,0 0,4 -4,0 0,-4z M57,97l4,0 0,4 -4,0 0,-4z M69,97l4,0 0,4 -4,0 0,-4z M77,97l4,0 0,4 -4,0 0,-4z M81,97l4,0 0,4 -4,0 0,-4z M85,97l4,0 0,4 -4,0 0,-4z M89,97l4,0 0,4 -4,0 0,-4z M93,97l4,0 0,4 -4,0 0,-4z M97,97l4,0 0,4 -4,0 0,-4z M101,97l4,0 0,4 -4,0 0,-4z M109,97l4,0 0,4 -4,0 0,-4z M1,101l4,0 0,4 -4,0 0,-4z M9,101l4,0 0,4 -4,0 0,-4z M13,101l4,0 0,4 -4,0 0,-4z M17,101l4,0 0,4 -4,0 0,-4z M25,101l4,0 0,4 -4,0 0,-4z M33,101l4,0 0,4 -4,0 0,-4z M41,101l4,0 0,4 -4,0 0,-4z M49,101l4,0 0,4 -4,0 0,-4z M65,101l4,0 0,4 -4,0 0,-4z M69,101l4,0 0,4 -4,0 0,-4z M73,101l4,0 0,4 -4,0 0,-4z M77,101l4,0 0,4 -4,0 0,-4z M81,101l4,0 0,4 -4,0 0,-4z M85,101l4,0 0,4 -4,0 0,-4z M97,101l4,0 0,4 -4,0 0,-4z M101,101l4,0 0,4 -4,0 0,-4z M105,101l4,0 0,4 -4,0 0,-4z M113,101l4,0 0,4 -4,0 0,-4z M1,105l4,0 0,4 -4,0 0,-4z M9,105l4,0 0,4 -4,0 0,-4z M13,105l4,0 0,4 -4,0 0,-4z M17,105l4,0 0,4 -4,0 0,-4z M25,105l4,0 0,4 -4,0 0,-4z M49,105l4,0 0,4 -4,0 0,-4z M53,105l4,0 0,4 -4,0 0,-4z M61,105l4,0 0,4 -4,0 0,-4z M77,105l4,0 0,4 -4,0 0,-4z M85,105l4,0 0,4 -4,0 0,-4z M89,105l4,0 0,4 -4,0 0,-4z M93,105l4,0 0,4 -4,0 0,-4z M97,105l4,0 0,4 -4,0 0,-4z M101,105l4,0 0,4 -4,0 0,-4z M109,105l4,0 0,4 -4,0 0,-4z M113,105l4,0 0,4 -4,0 0,-4z M1,109l4,0 0,4 -4,0 0,-4z M25,109l4,0 0,4 -4,0 0,-4z M41,109l4,0 0,4 -4,0 0,-4z M45,109l4,0 0,4 -4,0 0,-4z M57,109l4,0 0,4 -4,0 0,-4z M73,109l4,0 0,4 -4,0 0,-4z M77,109l4,0 0,4 -4,0 0,-4z M81,109l4,0 0,4 -4,0 0,-4z M89,109l4,0 0,4 -4,0 0,-4z M101,109l4,0 0,4 -4,0 0,-4z M105,109l4,0 0,4 -4,0 0,-4z M113,109l4,0 0,4 -4,0 0,-4z M1,113l4,0 0,4 -4,0 0,-4z M5,113l4,0 0,4 -4,0 0,-4z M9,113l4,0 0,4 -4,0 0,-4z M13,113l4,0 0,4 -4,0 0,-4z M17,113l4,0 0,4 -4,0 0,-4z M21,113l4,0 0,4 -4,0 0,-4z M25,113l4,0 0,4 -4,0 0,-4z M33,113l4,0 0,4 -4,0 0,-4z M41,113l4,0 0,4 -4,0 0,-4z M61,113l4,0 0,4 -4,0 0,-4z M69,113l4,0 0,4 -4,0 0,-4z M77,113l4,0 0,4 -4,0 0,-4z M81,113l4,0 0,4 -4,0 0,-4z M89,113l4,0 0,4 -4,0 0,-4z M93,113l4,0 0,4 -4,0 0,-4z M97,113l4,0 0,4 -4,0 0,-4z M101,113l4,0 0,4 -4,0 0,-4z M105,113l4,0 0,4 -4,0 0,-4z " stroke="transparent" fill="black"/></svg>