<svg version="1.1" xmlns="http://www.w3.org/2000/svg" width="118px" height="118px" viewBox="0 0 118 118"  preserveAspectRatio="xMinYMin meet"><rect width="100%" height="100%" fill="white" cx="0" cy="0"/><path d="M1,1l4,0 0,4 -4,0 0,-4z M5,1l4,0 0,4 -4,0 0,-4z M9,1l4,0 0,4 -4,0 0,-4z M13,1l4,0 0,4 -4,0 0,-4z M17,1l4,0 0,4 -4,0 0,-4z M21,1l4,0 0,4 -4,0 0,-4z M25,1l4,0 0,4 -4,0 0,-4z M33,1l4,0 0,4 -4,0 0,-4z M41,1l4,0 0,4 -4,0 0,-4z M61,1l4,0 0,4 -4,0 0,-4z M65,1l4,0 0,4 -4,0 0,-4z M69,1l4,0 0,4 -4,0 0,-4z M73,1l4,0 0,4 -4,0 0,-4z M81,1l4,0 0,4 -4,0 0,-4z M89,1l4,0 0,4 -4,0 0,-4z M93,1l4,0 0,4 -4,0 0,-4z M97,1l4,0 0,4 -4,0 0,-4z M101,1l4,0 0,4 -4,0 0,-4z M105,1l4,0 0,4 -4,0 0,-4z M109,1l4,0 0,4 -4,0 0,-4z M113,1l4,0 0,4 -4,0 0,-4z M1,5l4,0 0,4 -4,0 0,-4z M25,5l4,0 0,4 -4,0 0,-4z M33,5l4,0 0,4 -4,0 0,-4z M45,5l4,0 0,4 -4,0 0,-4z M57,5l4,0 0,4 -4,0 0,-4z M61,5l4,0 0,4 -4,0 0,-4z M69,5l4,0 0,4 -4,0 0,-4z M73,5l4,0 0,4 -4,0 0,-4z M89,5l4,0 0,4 -4,0 0,-4z M113,5l4,0 0,4 -4,0 0,-4z M1,9l4,0 0,4 -4,0 0,-4z M9,9l4,0 0,4 -4,0 0,-4z M13,9l4,0 0,4 -4,0 0,-4z M17,9l4,0 0,4 -4,0 0,-4z M25,9l4,0 0,4 -4,0 0,-4z M41,9l4,0 0,4 -4,0 0,-4z M53,9l4,0 0,4 -4,0 0,-4z M57,9l4,0 0,4 -4,0 0,-4z M61,9l4,0 0,4 -4,0 0,-4z M77,9l4,0 0,4 -4,0 0,-4z M89,9l4,0 0,4 -4,0 0,-4z M97,9l4,0 0,4 -4,0 0,-4z M101,9l4,0 0,4 -4,0 0,-4z M105,9l4,0 0,4 -4,0 0,-4z M113,9l4,0 0,4 -4,0 0,-4z M1,13l4,0 0,4 -4,0 0,-4z M9,13l4,0 0,4 -4,0 0,-4z M13,13l4,0 0,4 -4,0 0,-4z M17,13l4,0 0,4 -4,0 0,-4z M25,13l4,0 0,4 -4,0 0,-4z M33,13l4,0 0,4 -4,0 0,-4z M37,13l4,0 0,4 -4,0 0,-4z M41,13l4,0 0,4 -4,0 0,-4z M65,13l4,0 0,4 -4,0 0,-4z M89,13l4,0 0,4 -4,0 0,-4z M97,13l4,0 0,4 -4,0 0,-4z M101,13l4,0 0,4 -4,0 0,-4z M105,13l4,0 0,4 -4,0 0,-4z M113,13l4,0 0,4 -4,0 0,-4z M1,17l4,0 0,4 -4,0 0,-4z M9,17l4,0 0,4 -4,0 0,-4z M13,17l4,0 0,4 -4,0 0,-4z M17,17l4,0 0,4 -4,0 0,-4z M25,17l4,0 0,4 -4,0 0,-4z M37,17l4,0 0,4 -4,0 0,-4z M53,17l4,0 0,4 -4,0 0,-4z M89,17l4,0 0,4 -4,0 0,-4z M97,17l4,0 0,4 -4,0 0,-4z M101,17l4,0 0,4 -4,0 0,-4z M105,17l4,0 0,4 -4,0 0,-4z M113,17l4,0 0,4 -4,0 0,-4z M1,21l4,0 0,4 -4,0 0,-4z M25,21l4,0 0,4 -4,0 0,-4z M37,21l4,0 0,4 -4,0 0,-4z M41,21l4,0 0,4 -4,0 0,-4z M45,21l4,0 0,4 -4,0 0,-4z M49,21l4,0 0,4 -4,0 0,-4z M57,21l4,0 0,4 -4,0 0,-4z M73,21l4,0 0,4 -4,0 0,-4z M77,21l4,0 0,4 -4,0 0,-4z M81,21l4,0 0,4 -4,0 0,-4z M89,21l4,0 0,4 -4,0 0,-4z M113,21l4,0 0,4 -4,0 0,-4z M1,25l4,0 0,4 -4,0 0,-4z M5,25l4,0 0,4 -4,0 0,-4z M9,25l4,0 0,4 -4,0 0,-4z M13,25l4,0 0,4 -4,0 0,-4z M17,25l4,0 0,4 -4,0 0,-4z M21,25l4,0 0,4 -4,0 0,-4z M25,25l4,0 0,4 -4,0 0,-4z M33,25l4,0 0,4 -4,0 0,-4z M41,25l4,0 0,4 -4,0 0,-4z M49,25l4,0 0,4 -4,0 0,-4z M57,25l4,0 0,4 -4,0 0,-4z M65,25l4,0 0,4 -4,0 0,-4z M73,25l4,0 0,4 -4,0 0,-4z M81,25l4,0 0,4 -4,0 0,-4z M89,25l4,0 0,4 -4,0 0,-4z M93,25l4,0 0,4 -4,0 0,-4z M97,25l4,0 0,4 -4,0 0,-4z M101,25l4,0 0,4 -4,0 0,-4z M105,25l4,0 0,4 -4,0 0,-4z M109,25l4,0 0,4 -4,0 0,-4z M113,25l4,0 0,4 -4,0 0,-4z M33,29l4,0 0,4 -4,0 0,-4z M41,29l4,0 0,4 -4,0 0,-4z M45,29l4,0 0,4 -4,0 0,-4z M53,29l4,0 0,4 -4,0 0,-4z M57,29l4,0 0,4 -4,0 0,-4z M69,29l4,0 0,4 -4,0 0,-4z M1,33l4,0 0,4 -4,0 0,-4z M9,33l4,0 0,4 -4,0 0,-4z M13,33l4,0 0,4 -4,0 0,-4z M21,33l4,0 0,4 -4,0 0,-4z M25,33l4,0 0,4 -4,0 0,-4z M29,33l4,0 0,4 -4,0 0,-4z M37,33l4,0 0,4 -4,0 0,-4z M41,33l4,0 0,4 -4,0 0,-4z M45,33l4,0 0,4 -4,0 0,-4z M53,33l4,0 0,4 -4,0 0,-4z M57,33l4,0 0,4 -4,0 0,-4z M65,33l4,0 0,4 -4,0 0,-4z M69,33l4,0 0,4 -4,0 0,-4z M73,33l4,0 0,4 -4,0 0,-4z M89,33l4,0 0,4 -4,0 0,-4z M101,33l4,0 0,4 -4,0 0,-4z M109,33l4,0 0,4 -4,0 0,-4z M113,33l4,0 0,4 -4,0 0,-4z M1,37l4,0 0,4 -4,0 0,-4z M9,37l4,0 0,4 -4,0 0,-4z M33,37l4,0 0,4 -4,0 0,-4z M37,37l4,0 0,4 -4,0 0,-4z M41,37l4,0 0,4 -4,0 0,-4z M49,37l4,0 0,4 -4,0 0,-4z M61,37l4,0 0,4 -4,0 0,-4z M65,37l4,0 0,4 -4,0 0,-4z M69,37l4,0 0,4 -4,0 0,-4z M81,37l4,0 0,4 -4,0 0,-4z M85,37l4,0 0,4 -4,0 0,-4z M93,37l4,0 0,4 -4,0 0,-4z M97,37l4,0 0,4 -4,0 0,-4z M101,37l4,0 0,4 -4,0 0,-4z M105,37l4,0 0,4 -4,0 0,-4z M113,37l4,0 0,4 -4,0 0,-4z M5,41l4,0 0,4 -4,0 0,-4z M13,41l4,0 0,4 -4,0 0,-4z M25,41l4,0 0,4 -4,0 0,-4z M29,41l4,0 0,4 -4,0 0,-4z M33,41l4,0 0,4 -4,0 0,-4z M37,41l4,0 0,4 -4,0 0,-4z M41,41l4,0 0,4 -4,0 0,-4z M45,41l4,0 0,4 -4,0 0,-4z M49,41l4,0 0,4 -4,0 0,-4z M57,41l4,0 0,4 -4,0 0,-4z M61,41l4,0 0,4 -4,0 0,-4z M69,41l4,0 0,4 -4,0 0,-4z M73,41l4,0 0,4 -4,0 0,-4z M85,41l4,0 0,4 -4,0 0,-4z M89,41l4,0 0,4 -4,0 0,-4z M93,41l4,0 0,4 -4,0 0,-4z M97,41l4,0 0,4 -4,0 0,-4z M105,41l4,0 0,4 -4,0 0,-4z M109,41l4,0 0,4 -4,0 0,-4z M17,45l4,0 0,4 -4,0 0,-4z M37,45l4,0 0,4 -4,0 0,-4z M45,45l4,0 0,4 -4,0 0,-4z M49,45l4,0 0,4 -4,0 0,-4z M53,45l4,0 0,4 -4,0 0,-4z M57,45l4,0 0,4 -4,0 0,-4z M61,45l4,0 0,4 -4,0 0,-4z M85,45l4,0 0,4 -4,0 0,-4z M101,45l4,0 0,4 -4,0 0,-4z M109,45l4,0 0,4 -4,0 0,-4z M1,49l4,0 0,4 -4,0 0,-4z M5,49l4,0 0,4 -4,0 0,-4z M9,49l4,0 0,4 -4,0 0,-4z M17,49l4,0 0,4 -4,0 0,-4z M25,49l4,0 0,4 -4,0 0,-4z M29,49l4,0 0,4 -4,0 0,-4z M37,49l4,0 0,4 -4,0 0,-4z M45,49l4,0 0,4 -4,0 0,-4z M81,49l4,0 0,4 -4,0 0,-4z M93,49l4,0 0,4 -4,0 0,-4z M97,49l4,0 0,4 -4,0 0,-4z M101,49l4,0 0,4 -4,0 0,-4z M105,49l4,0 0,4 -4,0 0,-4z M109,49l4,0 0,4 -4,0 0,-4z M5,53l4,0 0,4 -4,0 0,-4z M13,53l4,0 0,4 -4,0 0,-4z M17,53l4,0 0,4 -4,0 0,-4z M33,53l4,0 0,4 -4,0 0,-4z M37,53l4,0 0,4 -4,0 0,-4z M41,53l4,0 0,4 -4,0 0,-4z M49,53l4,0 0,4 -4,0 0,-4z M53,53l4,0 0,4 -4,0 0,-4z M69,53l4,0 0,4 -4,0 0,-4z M73,53l4,0 0,4 -4,0 0,-4z M101,53l4,0 0,4 -4,0 0,-4z M105,53l4,0 0,4 -4,0 0,-4z M1,57l4,0 0,4 -4,0 0,-4z M17,57l4,0 0,4 -4,0 0,-4z M25,57l4,0 0,4 -4,0 0,-4z M29,57l4,0 0,4 -4,0 0,-4z M45,57l4,0 0,4 -4,0 0,-4z M57,57l4,0 0,4 -4,0 0,-4z M69,57l4,0 0,4 -4,0 0,-4z M77,57l4,0 0,4 -4,0 0,-4z M85,57l4,0 0,4 -4,0 0,-4z M101,57l4,0 0,4 -4,0 0,-4z M109,57l4,0 0,4 -4,0 0,-4z M113,57l4,0 0,4 -4,0 0,-4z M1,61l4,0 0,4 -4,0 0,-4z M13,61l4,0 0,4 -4,0 0,-4z M21,61l4,0 0,4 -4,0 0,-4z M33,61l4,0 0,4 -4,0 0,-4z M37,61l4,0 0,4 -4,0 0,-4z M41,61l4,0 0,4 -4,0 0,-4z M53,61l4,0 0,4 -4,0 0,-4z M61,61l4,0 0,4 -4,0 0,-4z M89,61l4,0 0,4 -4,0 0,-4z M97,61l4,0 0,4 -4,0 0,-4z M101,61l4,0 0,4 -4,0 0,-4z M113,61l4,0 0,4 -4,0 0,-4z M25,65l4,0 0,4 -4,0 0,-4z M33,65l4,0 0,4 -4,0 0,-4z M41,65l4,0 0,4 -4,0 0,-4z M45,65l4,0 0,4 -4,0 0,-4z M65,65l4,0 0,4 -4,0 0,-4z M69,65l4,0 0,4 -4,0 0,-4z M73,65l4,0 0,4 -4,0 0,-4z M81,65l4,0 0,4 -4,0 0,-4z M85,65l4,0 0,4 -4,0 0,-4z M93,65l4,0 0,4 -4,0 0,-4z M97,65l4,0 0,4 -4,0 0,-4z M101,65l4,0 0,4 -4,0 0,-4z M105,65l4,0 0,4 -4,0 0,-4z M5,69l4,0 0,4 -4,0 0,-4z M13,69l4,0 0,4 -4,0 0,-4z M17,69l4,0 0,4 -4,0 0,-4z M29,69l4,0 0,4 -4,0 0,-4z M37,69l4,0 0,4 -4,0 0,-4z M41,69l4,0 0,4 -4,0 0,-4z M45,69l4,0 0,4 -4,0 0,-4z M49,69l4,0 0,4 -4,0 0,-4z M53,69l4,0 0,4 -4,0 0,-4z M61,69l4,0 0,4 -4,0 0,-4z M65,69l4,0 0,4 -4,0 0,-4z M73,69l4,0 0,4 -4,0 0,-4z M89,69l4,0 0,4 -4,0 0,-4z M101,69l4,0 0,4 -4,0 0,-4z M109,69l4,0 0,4 -4,0 0,-4z M113,69l4,0 0,4 -4,0 0,-4z M1,73l4,0 0,4 -4,0 0,-4z M21,73l4,0 0,4 -4,0 0,-4z M25,73l4,0 0,4 -4,0 0,-4z M29,73l4,0 0,4 -4,0 0,-4z M37,73l4,0 0,4 -4,0 0,-4z M41,73l4,0 0,4 -4,0 0,-4z M45,73l4,0 0,4 -4,0 0,-4z M49,73l4,0 0,4 -4,0 0,-4z M61,73l4,0 0,4 -4,0 0,-4z M69,73l4,0 0,4 -4,0 0,-4z M73,73l4,0 0,4 -4,0 0,-4z M89,73l4,0 0,4 -4,0 0,-4z M97,73l4,0 0,4 -4,0 0,-4z M101,73l4,0 0,4 -4,0 0,-4z M105,73l4,0 0,4 -4,0 0,-4z M9,77l4,0 0,4 -4,0 0,-4z M29,77l4,0 0,4 -4,0 0,-4z M45,77l4,0 0,4 -4,0 0,-4z M65,77l4,0 0,4 -4,0 0,-4z M69,77l4,0 0,4 -4,0 0,-4z M73,77l4,0 0,4 -4,0 0,-4z M77,77l4,0 0,4 -4,0 0,-4z M81,77l4,0 0,4 -4,0 0,-4z M85,77l4,0 0,4 -4,0 0,-4z M105,77l4,0 0,4 -4,0 0,-4z M109,77l4,0 0,4 -4,0 0,-4z M113,77l4,0 0,4 -4,0 0,-4z M5,81l4,0 0,4 -4,0 0,-4z M13,81l4,0 0,4 -4,0 0,-4z M17,81l4,0 0,4 -4,0 0,-4z M25,81l4,0 0,4 -4,0 0,-4z M37,81l4,0 0,4 -4,0 0,-4z M41,81l4,0 0,4 -4,0 0,-4z M45,81l4,0 0,4 -4,0 0,-4z M49,81l4,0 0,4 -4,0 0,-4z M53,81l4,0 0,4 -4,0 0,-4z M73,81l4,0 0,4 -4,0 0,-4z M77,81l4,0 0,4 -4,0 0,-4z M81,81l4,0 0,4 -4,0 0,-4z M85,81l4,0 0,4 -4,0 0,-4z M89,81l4,0 0,4 -4,0 0,-4z M93,81l4,0 0,4 -4,0 0,-4z M97,81l4,0 0,4 -4,0 0,-4z M101,81l4,0 0,4 -4,0 0,-4z M105,81l4,0 0,4 -4,0 0,-4z M113,81l4,0 0,4 -4,0 0,-4z M33,85l4,0 0,4 -4,0 0,-4z M37,85l4,0 0,4 -4,0 0,-4z M45,85l4,0 0,4 -4,0 0,-4z M49,85l4,0 0,4 -4,0 0,-4z M53,85l4,0 0,4 -4,0 0,-4z M57,85l4,0 0,4 -4,0 0,-4z M73,85l4,0 0,4 -4,0 0,-4z M81,85l4,0 0,4 -4,0 0,-4z M97,85l4,0 0,4 -4,0 0,-4z M1,89l4,0 0,4 -4,0 0,-4z M5,89l4,0 0,4 -4,0 0,-4z M9,89l4,0 0,4 -4,0 0,-4z M13,89l4,0 0,4 -4,0 0,-4z M17,89l4,0 0,4 -4,0 0,-4z M21,89l4,0 0,4 -4,0 0,-4z M25,89l4,0 0,4 -4,0 0,-4z M33,89l4,0 0,4 -4,0 0,-4z M37,89l4,0 0,4 -4,0 0,-4z M41,89l4,0 0,4 -4,0 0,-4z M45,89l4,0 0,4 -4,0 0,-4z M49,89l4,0 0,4 -4,0 0,-4z M53,89l4,0 0,4 -4,0 0,-4z M81,89l4,0 0,4 -4,0 0,-4z M89,89l4,0 0,4 -4,0 0,-4z M97,89l4,0 0,4 -4,0 0,-4z M105,89l4,0 0,4 -4,0 0,-4z M109,89l4,0 0,4 -4,0 0,-4z M1,93l4,0 0,4 -4,0 0,-4z M25,93l4,0 0,4 -4,0 0,-4z M33,93l4,0 0,4 -4,0 0,-4z M37,93l4,0 0,4 -4,0 0,-4z M65,93l4,0 0,4 -4,0 0,-4z M73,93l4,0 0,4 -4,0 0,-4z M81,93l4,0 0,4 -4,0 0,-4z M97,93l4,0 0,4 -4,0 0,-4z M109,93l4,0 0,4 -4,0 0,-4z M113,93l4,0 0,4 -4,0 0,-4z M1,97l4,0 0,4 -4,0 0,-4z M9,97l4,0 0,4 -4,0 0,-4z M13,97l4,0 0,4 -4,0 0,-4z M17,97l4,0 0,4 -4,0 0,-4z M25,97l4,0 0,4 -4,0 0,-4z M37,97l4,0 0,4 -4,0 0,-4z M41,97l4,0 0,4 -4,0 0,-4z M49,97l4,0 0,4 -4,0 0,-4z M57,97l4,0 0,4 -4,0 0,-4z M61,97l4,0 0,4 -4,0 0,-4z M65,97l4,0 0,4 -4,0 0,-4z M69,97l4,0 0,4 -4,0 0,-4z M73,97l4,0 0,4 -4,0 0,-4z M81,97l4,0 0,4 -4,0 0,-4z M85,97l4,0 0,4 -4,0 0,-4z M89,97l4,0 0,4 -4,0 0,-4z M93,97l4,0 0,4 -4,0 0,-4z M97,97l4,0 0,4 -4,0 0,-4z M101,97l4,0 0,4 -4,0 0,-4z M109,97l4,0 0,4 -4,0 0,-4z M1,101l4,0 0,4 -4,0 0,-4z M9,101l4,0 0,4 -4,0 0,-4z M13,101l4,0 0,4 -4,0 0,-4z M17,101l4,0 0,4 -4,0 0,-4z M25,101l4,0 0,4 -4,0 0,-4z M33,101l4,0 0,4 -4,0 0,-4z M37,101l4,0 0,4 -4,0 0,-4z M45,101l4,0 0,4 -4,0 0,-4z M49,101l4,0 0,4 -4,0 0,-4z M53,101l4,0 0,4 -4,0 0,-4z M57,101l4,0 0,4 -4,0 0,-4z M61,101l4,0 0,4 -4,0 0,-4z M81,101l4,0 0,4 -4,0 0,-4z M85,101l4,0 0,4 -4,0 0,-4z M93,101l4,0 0,4 -4,0 0,-4z M105,101l4,0 0,4 -4,0 0,-4z M113,101l4,0 0,4 -4,0 0,-4z M1,105l4,0 0,4 -4,0 0,-4z M9,105l4,0 0,4 -4,0 0,-4z M13,105l4,0 0,4 -4,0 0,-4z M17,105l4,0 0,4 -4,0 0,-4z M25,105l4,0 0,4 -4,0 0,-4z M33,105l4,0 0,4 -4,0 0,-4z M37,105l4,0 0,4 -4,0 0,-4z M65,105l4,0 0,4 -4,0 0,-4z M73,105l4,0 0,4 -4,0 0,-4z M77,105l4,0 0,4 -4,0 0,-4z M85,105l4,0 0,4 -4,0 0,-4z M93,105l4,0 0,4 -4,0 0,-4z M101,105l4,0 0,4 -4,0 0,-4z M105,105l4,0 0,4 -4,0 0,-4z M113,105l4,0 0,4 -4,0 0,-4z M1,109l4,0 0,4 -4,0 0,-4z M25,109l4,0 0,4 -4,0 0,-4z M41,109l4,0 0,4 -4,0 0,-4z M57,109l4,0 0,4 -4,0 0,-4z M61,109l4,0 0,4 -4,0 0,-4z M77,109l4,0 0,4 -4,0 0,-4z M89,109l4,0 0,4 -4,0 0,-4z M109,109l4,0 0,4 -4,0 0,-4z M1,113l4,0 0,4 -4,0 0,-4z M5,113l4,0 0,4 -4,0 0,-4z M9,113l4,0 0,4 -4,0 0,-4z M13,113l4,0 0,4 -4,0 0,-4z M17,113l4,0 0,4 -4,0 0,-4z M21,113l4,0 0,4 -4,0 0,-4z M25,113l4,0 0,4 -4,0 0,-4z M33,113l4,0 0,4 -4,0 0,-4z M37,113l4,0 0,4 -4,0 0,-4z M49,113l4,0 0,4 -4,0 0,-4z M65,113l4,0 0,4 -4,0 0,-4z M77,113l4,0 0,4 -4,0 0,-4z M81,113l4,0 0,4 -4,0 0,-4z M109,113l4,0 0,4 -4,0 0,-4z " stroke="transparent" fill="black"/></svg>