<svg version="1.1" xmlns="http://www.w3.org/2000/svg" width="102px" height="102px" viewBox="0 0 102 102"  preserveAspectRatio="xMinYMin meet"><rect width="100%" height="100%" fill="white" cx="0" cy="0"/><path d="M1,1l4,0 0,4 -4,0 0,-4z M5,1l4,0 0,4 -4,0 0,-4z M9,1l4,0 0,4 -4,0 0,-4z M13,1l4,0 0,4 -4,0 0,-4z M17,1l4,0 0,4 -4,0 0,-4z M21,1l4,0 0,4 -4,0 0,-4z M25,1l4,0 0,4 -4,0 0,-4z M33,1l4,0 0,4 -4,0 0,-4z M41,1l4,0 0,4 -4,0 0,-4z M57,1l4,0 0,4 -4,0 0,-4z M61,1l4,0 0,4 -4,0 0,-4z M73,1l4,0 0,4 -4,0 0,-4z M77,1l4,0 0,4 -4,0 0,-4z M81,1l4,0 0,4 -4,0 0,-4z M85,1l4,0 0,4 -4,0 0,-4z M89,1l4,0 0,4 -4,0 0,-4z M93,1l4,0 0,4 -4,0 0,-4z M97,1l4,0 0,4 -4,0 0,-4z M1,5l4,0 0,4 -4,0 0,-4z M25,5l4,0 0,4 -4,0 0,-4z M41,5l4,0 0,4 -4,0 0,-4z M49,5l4,0 0,4 -4,0 0,-4z M57,5l4,0 0,4 -4,0 0,-4z M65,5l4,0 0,4 -4,0 0,-4z M73,5l4,0 0,4 -4,0 0,-4z M97,5l4,0 0,4 -4,0 0,-4z M1,9l4,0 0,4 -4,0 0,-4z M9,9l4,0 0,4 -4,0 0,-4z M13,9l4,0 0,4 -4,0 0,-4z M17,9l4,0 0,4 -4,0 0,-4z M25,9l4,0 0,4 -4,0 0,-4z M33,9l4,0 0,4 -4,0 0,-4z M37,9l4,0 0,4 -4,0 0,-4z M45,9l4,0 0,4 -4,0 0,-4z M53,9l4,0 0,4 -4,0 0,-4z M73,9l4,0 0,4 -4,0 0,-4z M81,9l4,0 0,4 -4,0 0,-4z M85,9l4,0 0,4 -4,0 0,-4z M89,9l4,0 0,4 -4,0 0,-4z M97,9l4,0 0,4 -4,0 0,-4z M1,13l4,0 0,4 -4,0 0,-4z M9,13l4,0 0,4 -4,0 0,-4z M13,13l4,0 0,4 -4,0 0,-4z M17,13l4,0 0,4 -4,0 0,-4z M25,13l4,0 0,4 -4,0 0,-4z M41,13l4,0 0,4 -4,0 0,-4z M45,13l4,0 0,4 -4,0 0,-4z M49,13l4,0 0,4 -4,0 0,-4z M61,13l4,0 0,4 -4,0 0,-4z M73,13l4,0 0,4 -4,0 0,-4z M81,13l4,0 0,4 -4,0 0,-4z M85,13l4,0 0,4 -4,0 0,-4z M89,13l4,0 0,4 -4,0 0,-4z M97,13l4,0 0,4 -4,0 0,-4z M1,17l4,0 0,4 -4,0 0,-4z M9,17l4,0 0,4 -4,0 0,-4z M13,17l4,0 0,4 -4,0 0,-4z M17,17l4,0 0,4 -4,0 0,-4z M25,17l4,0 0,4 -4,0 0,-4z M37,17l4,0 0,4 -4,0 0,-4z M57,17l4,0 0,4 -4,0 0,-4z M61,17l4,0 0,4 -4,0 0,-4z M73,17l4,0 0,4 -4,0 0,-4z M81,17l4,0 0,4 -4,0 0,-4z M85,17l4,0 0,4 -4,0 0,-4z M89,17l4,0 0,4 -4,0 0,-4z M97,17l4,0 0,4 -4,0 0,-4z M1,21l4,0 0,4 -4,0 0,-4z M25,21l4,0 0,4 -4,0 0,-4z M33,21l4,0 0,4 -4,0 0,-4z M49,21l4,0 0,4 -4,0 0,-4z M53,21l4,0 0,4 -4,0 0,-4z M57,21l4,0 0,4 -4,0 0,-4z M65,21l4,0 0,4 -4,0 0,-4z M73,21l4,0 0,4 -4,0 0,-4z M97,21l4,0 0,4 -4,0 0,-4z M1,25l4,0 0,4 -4,0 0,-4z M5,25l4,0 0,4 -4,0 0,-4z M9,25l4,0 0,4 -4,0 0,-4z M13,25l4,0 0,4 -4,0 0,-4z M17,25l4,0 0,4 -4,0 0,-4z M21,25l4,0 0,4 -4,0 0,-4z M25,25l4,0 0,4 -4,0 0,-4z M33,25l4,0 0,4 -4,0 0,-4z M41,25l4,0 0,4 -4,0 0,-4z M49,25l4,0 0,4 -4,0 0,-4z M57,25l4,0 0,4 -4,0 0,-4z M65,25l4,0 0,4 -4,0 0,-4z M73,25l4,0 0,4 -4,0 0,-4z M77,25l4,0 0,4 -4,0 0,-4z M81,25l4,0 0,4 -4,0 0,-4z M85,25l4,0 0,4 -4,0 0,-4z M89,25l4,0 0,4 -4,0 0,-4z M93,25l4,0 0,4 -4,0 0,-4z M97,25l4,0 0,4 -4,0 0,-4z M37,29l4,0 0,4 -4,0 0,-4z M45,29l4,0 0,4 -4,0 0,-4z M53,29l4,0 0,4 -4,0 0,-4z M61,29l4,0 0,4 -4,0 0,-4z M65,29l4,0 0,4 -4,0 0,-4z M1,33l4,0 0,4 -4,0 0,-4z M9,33l4,0 0,4 -4,0 0,-4z M25,33l4,0 0,4 -4,0 0,-4z M29,33l4,0 0,4 -4,0 0,-4z M41,33l4,0 0,4 -4,0 0,-4z M45,33l4,0 0,4 -4,0 0,-4z M49,33l4,0 0,4 -4,0 0,-4z M53,33l4,0 0,4 -4,0 0,-4z M65,33l4,0 0,4 -4,0 0,-4z M77,33l4,0 0,4 -4,0 0,-4z M89,33l4,0 0,4 -4,0 0,-4z M97,33l4,0 0,4 -4,0 0,-4z M1,37l4,0 0,4 -4,0 0,-4z M9,37l4,0 0,4 -4,0 0,-4z M17,37l4,0 0,4 -4,0 0,-4z M29,37l4,0 0,4 -4,0 0,-4z M33,37l4,0 0,4 -4,0 0,-4z M41,37l4,0 0,4 -4,0 0,-4z M45,37l4,0 0,4 -4,0 0,-4z M49,37l4,0 0,4 -4,0 0,-4z M65,37l4,0 0,4 -4,0 0,-4z M77,37l4,0 0,4 -4,0 0,-4z M85,37l4,0 0,4 -4,0 0,-4z M1,41l4,0 0,4 -4,0 0,-4z M5,41l4,0 0,4 -4,0 0,-4z M13,41l4,0 0,4 -4,0 0,-4z M25,41l4,0 0,4 -4,0 0,-4z M29,41l4,0 0,4 -4,0 0,-4z M33,41l4,0 0,4 -4,0 0,-4z M37,41l4,0 0,4 -4,0 0,-4z M41,41l4,0 0,4 -4,0 0,-4z M45,41l4,0 0,4 -4,0 0,-4z M49,41l4,0 0,4 -4,0 0,-4z M53,41l4,0 0,4 -4,0 0,-4z M57,41l4,0 0,4 -4,0 0,-4z M61,41l4,0 0,4 -4,0 0,-4z M65,41l4,0 0,4 -4,0 0,-4z M69,41l4,0 0,4 -4,0 0,-4z M85,41l4,0 0,4 -4,0 0,-4z M89,41l4,0 0,4 -4,0 0,-4z M97,41l4,0 0,4 -4,0 0,-4z M1,45l4,0 0,4 -4,0 0,-4z M5,45l4,0 0,4 -4,0 0,-4z M9,45l4,0 0,4 -4,0 0,-4z M13,45l4,0 0,4 -4,0 0,-4z M17,45l4,0 0,4 -4,0 0,-4z M49,45l4,0 0,4 -4,0 0,-4z M57,45l4,0 0,4 -4,0 0,-4z M61,45l4,0 0,4 -4,0 0,-4z M69,45l4,0 0,4 -4,0 0,-4z M77,45l4,0 0,4 -4,0 0,-4z M81,45l4,0 0,4 -4,0 0,-4z M85,45l4,0 0,4 -4,0 0,-4z M93,45l4,0 0,4 -4,0 0,-4z M1,49l4,0 0,4 -4,0 0,-4z M5,49l4,0 0,4 -4,0 0,-4z M13,49l4,0 0,4 -4,0 0,-4z M17,49l4,0 0,4 -4,0 0,-4z M21,49l4,0 0,4 -4,0 0,-4z M25,49l4,0 0,4 -4,0 0,-4z M33,49l4,0 0,4 -4,0 0,-4z M41,49l4,0 0,4 -4,0 0,-4z M53,49l4,0 0,4 -4,0 0,-4z M57,49l4,0 0,4 -4,0 0,-4z M61,49l4,0 0,4 -4,0 0,-4z M73,49l4,0 0,4 -4,0 0,-4z M77,49l4,0 0,4 -4,0 0,-4z M81,49l4,0 0,4 -4,0 0,-4z M85,49l4,0 0,4 -4,0 0,-4z M89,49l4,0 0,4 -4,0 0,-4z M93,49l4,0 0,4 -4,0 0,-4z M97,49l4,0 0,4 -4,0 0,-4z M9,53l4,0 0,4 -4,0 0,-4z M13,53l4,0 0,4 -4,0 0,-4z M17,53l4,0 0,4 -4,0 0,-4z M21,53l4,0 0,4 -4,0 0,-4z M33,53l4,0 0,4 -4,0 0,-4z M37,53l4,0 0,4 -4,0 0,-4z M41,53l4,0 0,4 -4,0 0,-4z M53,53l4,0 0,4 -4,0 0,-4z M57,53l4,0 0,4 -4,0 0,-4z M65,53l4,0 0,4 -4,0 0,-4z M77,53l4,0 0,4 -4,0 0,-4z M89,53l4,0 0,4 -4,0 0,-4z M1,57l4,0 0,4 -4,0 0,-4z M5,57l4,0 0,4 -4,0 0,-4z M25,57l4,0 0,4 -4,0 0,-4z M29,57l4,0 0,4 -4,0 0,-4z M37,57l4,0 0,4 -4,0 0,-4z M45,57l4,0 0,4 -4,0 0,-4z M61,57l4,0 0,4 -4,0 0,-4z M65,57l4,0 0,4 -4,0 0,-4z M77,57l4,0 0,4 -4,0 0,-4z M81,57l4,0 0,4 -4,0 0,-4z M89,57l4,0 0,4 -4,0 0,-4z M97,57l4,0 0,4 -4,0 0,-4z M13,61l4,0 0,4 -4,0 0,-4z M29,61l4,0 0,4 -4,0 0,-4z M53,61l4,0 0,4 -4,0 0,-4z M77,61l4,0 0,4 -4,0 0,-4z M85,61l4,0 0,4 -4,0 0,-4z M1,65l4,0 0,4 -4,0 0,-4z M5,65l4,0 0,4 -4,0 0,-4z M21,65l4,0 0,4 -4,0 0,-4z M25,65l4,0 0,4 -4,0 0,-4z M29,65l4,0 0,4 -4,0 0,-4z M33,65l4,0 0,4 -4,0 0,-4z M37,65l4,0 0,4 -4,0 0,-4z M45,65l4,0 0,4 -4,0 0,-4z M49,65l4,0 0,4 -4,0 0,-4z M53,65l4,0 0,4 -4,0 0,-4z M61,65l4,0 0,4 -4,0 0,-4z M65,65l4,0 0,4 -4,0 0,-4z M69,65l4,0 0,4 -4,0 0,-4z M73,65l4,0 0,4 -4,0 0,-4z M77,65l4,0 0,4 -4,0 0,-4z M81,65l4,0 0,4 -4,0 0,-4z M85,65l4,0 0,4 -4,0 0,-4z M89,65l4,0 0,4 -4,0 0,-4z M33,69l4,0 0,4 -4,0 0,-4z M37,69l4,0 0,4 -4,0 0,-4z M49,69l4,0 0,4 -4,0 0,-4z M65,69l4,0 0,4 -4,0 0,-4z M81,69l4,0 0,4 -4,0 0,-4z M85,69l4,0 0,4 -4,0 0,-4z M1,73l4,0 0,4 -4,0 0,-4z M5,73l4,0 0,4 -4,0 0,-4z M9,73l4,0 0,4 -4,0 0,-4z M13,73l4,0 0,4 -4,0 0,-4z M17,73l4,0 0,4 -4,0 0,-4z M21,73l4,0 0,4 -4,0 0,-4z M25,73l4,0 0,4 -4,0 0,-4z M33,73l4,0 0,4 -4,0 0,-4z M49,73l4,0 0,4 -4,0 0,-4z M53,73l4,0 0,4 -4,0 0,-4z M57,73l4,0 0,4 -4,0 0,-4z M65,73l4,0 0,4 -4,0 0,-4z M73,73l4,0 0,4 -4,0 0,-4z M81,73l4,0 0,4 -4,0 0,-4z M89,73l4,0 0,4 -4,0 0,-4z M97,73l4,0 0,4 -4,0 0,-4z M1,77l4,0 0,4 -4,0 0,-4z M25,77l4,0 0,4 -4,0 0,-4z M37,77l4,0 0,4 -4,0 0,-4z M45,77l4,0 0,4 -4,0 0,-4z M49,77l4,0 0,4 -4,0 0,-4z M57,77l4,0 0,4 -4,0 0,-4z M65,77l4,0 0,4 -4,0 0,-4z M81,77l4,0 0,4 -4,0 0,-4z M85,77l4,0 0,4 -4,0 0,-4z M97,77l4,0 0,4 -4,0 0,-4z M1,81l4,0 0,4 -4,0 0,-4z M9,81l4,0 0,4 -4,0 0,-4z M13,81l4,0 0,4 -4,0 0,-4z M17,81l4,0 0,4 -4,0 0,-4z M25,81l4,0 0,4 -4,0 0,-4z M41,81l4,0 0,4 -4,0 0,-4z M53,81l4,0 0,4 -4,0 0,-4z M57,81l4,0 0,4 -4,0 0,-4z M61,81l4,0 0,4 -4,0 0,-4z M65,81l4,0 0,4 -4,0 0,-4z M69,81l4,0 0,4 -4,0 0,-4z M73,81l4,0 0,4 -4,0 0,-4z M77,81l4,0 0,4 -4,0 0,-4z M81,81l4,0 0,4 -4,0 0,-4z M89,81l4,0 0,4 -4,0 0,-4z M93,81l4,0 0,4 -4,0 0,-4z M97,81l4,0 0,4 -4,0 0,-4z M1,85l4,0 0,4 -4,0 0,-4z M9,85l4,0 0,4 -4,0 0,-4z M13,85l4,0 0,4 -4,0 0,-4z M17,85l4,0 0,4 -4,0 0,-4z M25,85l4,0 0,4 -4,0 0,-4z M37,85l4,0 0,4 -4,0 0,-4z M41,85l4,0 0,4 -4,0 0,-4z M53,85l4,0 0,4 -4,0 0,-4z M57,85l4,0 0,4 -4,0 0,-4z M69,85l4,0 0,4 -4,0 0,-4z M77,85l4,0 0,4 -4,0 0,-4z M93,85l4,0 0,4 -4,0 0,-4z M1,89l4,0 0,4 -4,0 0,-4z M9,89l4,0 0,4 -4,0 0,-4z M13,89l4,0 0,4 -4,0 0,-4z M17,89l4,0 0,4 -4,0 0,-4z M25,89l4,0 0,4 -4,0 0,-4z M33,89l4,0 0,4 -4,0 0,-4z M37,89l4,0 0,4 -4,0 0,-4z M45,89l4,0 0,4 -4,0 0,-4z M65,89l4,0 0,4 -4,0 0,-4z M69,89l4,0 0,4 -4,0 0,-4z M73,89l4,0 0,4 -4,0 0,-4z M81,89l4,0 0,4 -4,0 0,-4z M93,89l4,0 0,4 -4,0 0,-4z M97,89l4,0 0,4 -4,0 0,-4z M1,93l4,0 0,4 -4,0 0,-4z M25,93l4,0 0,4 -4,0 0,-4z M53,93l4,0 0,4 -4,0 0,-4z M61,93l4,0 0,4 -4,0 0,-4z M69,93l4,0 0,4 -4,0 0,-4z M1,97l4,0 0,4 -4,0 0,-4z M5,97l4,0 0,4 -4,0 0,-4z M9,97l4,0 0,4 -4,0 0,-4z M13,97l4,0 0,4 -4,0 0,-4z M17,97l4,0 0,4 -4,0 0,-4z M21,97l4,0 0,4 -4,0 0,-4z M25,97l4,0 0,4 -4,0 0,-4z M33,97l4,0 0,4 -4,0 0,-4z M37,97l4,0 0,4 -4,0 0,-4z M41,97l4,0 0,4 -4,0 0,-4z M45,97l4,0 0,4 -4,0 0,-4z M49,97l4,0 0,4 -4,0 0,-4z M53,97l4,0 0,4 -4,0 0,-4z M65,97l4,0 0,4 -4,0 0,-4z M73,97l4,0 0,4 -4,0 0,-4z M77,97l4,0 0,4 -4,0 0,-4z M81,97l4,0 0,4 -4,0 0,-4z M85,97l4,0 0,4 -4,0 0,-4z M97,97l4,0 0,4 -4,0 0,-4z " stroke="transparent" fill="black"/></svg>