<svg version="1.1" xmlns="http://www.w3.org/2000/svg" width="102px" height="102px" viewBox="0 0 102 102"  preserveAspectRatio="xMinYMin meet"><rect width="100%" height="100%" fill="white" cx="0" cy="0"/><path d="M1,1l4,0 0,4 -4,0 0,-4z M5,1l4,0 0,4 -4,0 0,-4z M9,1l4,0 0,4 -4,0 0,-4z M13,1l4,0 0,4 -4,0 0,-4z M17,1l4,0 0,4 -4,0 0,-4z M21,1l4,0 0,4 -4,0 0,-4z M25,1l4,0 0,4 -4,0 0,-4z M37,1l4,0 0,4 -4,0 0,-4z M41,1l4,0 0,4 -4,0 0,-4z M49,1l4,0 0,4 -4,0 0,-4z M57,1l4,0 0,4 -4,0 0,-4z M61,1l4,0 0,4 -4,0 0,-4z M73,1l4,0 0,4 -4,0 0,-4z M77,1l4,0 0,4 -4,0 0,-4z M81,1l4,0 0,4 -4,0 0,-4z M85,1l4,0 0,4 -4,0 0,-4z M89,1l4,0 0,4 -4,0 0,-4z M93,1l4,0 0,4 -4,0 0,-4z M97,1l4,0 0,4 -4,0 0,-4z M1,5l4,0 0,4 -4,0 0,-4z M25,5l4,0 0,4 -4,0 0,-4z M33,5l4,0 0,4 -4,0 0,-4z M37,5l4,0 0,4 -4,0 0,-4z M45,5l4,0 0,4 -4,0 0,-4z M57,5l4,0 0,4 -4,0 0,-4z M65,5l4,0 0,4 -4,0 0,-4z M73,5l4,0 0,4 -4,0 0,-4z M97,5l4,0 0,4 -4,0 0,-4z M1,9l4,0 0,4 -4,0 0,-4z M9,9l4,0 0,4 -4,0 0,-4z M13,9l4,0 0,4 -4,0 0,-4z M17,9l4,0 0,4 -4,0 0,-4z M25,9l4,0 0,4 -4,0 0,-4z M33,9l4,0 0,4 -4,0 0,-4z M45,9l4,0 0,4 -4,0 0,-4z M57,9l4,0 0,4 -4,0 0,-4z M65,9l4,0 0,4 -4,0 0,-4z M73,9l4,0 0,4 -4,0 0,-4z M81,9l4,0 0,4 -4,0 0,-4z M85,9l4,0 0,4 -4,0 0,-4z M89,9l4,0 0,4 -4,0 0,-4z M97,9l4,0 0,4 -4,0 0,-4z M1,13l4,0 0,4 -4,0 0,-4z M9,13l4,0 0,4 -4,0 0,-4z M13,13l4,0 0,4 -4,0 0,-4z M17,13l4,0 0,4 -4,0 0,-4z M25,13l4,0 0,4 -4,0 0,-4z M33,13l4,0 0,4 -4,0 0,-4z M37,13l4,0 0,4 -4,0 0,-4z M57,13l4,0 0,4 -4,0 0,-4z M61,13l4,0 0,4 -4,0 0,-4z M65,13l4,0 0,4 -4,0 0,-4z M73,13l4,0 0,4 -4,0 0,-4z M81,13l4,0 0,4 -4,0 0,-4z M85,13l4,0 0,4 -4,0 0,-4z M89,13l4,0 0,4 -4,0 0,-4z M97,13l4,0 0,4 -4,0 0,-4z M1,17l4,0 0,4 -4,0 0,-4z M9,17l4,0 0,4 -4,0 0,-4z M13,17l4,0 0,4 -4,0 0,-4z M17,17l4,0 0,4 -4,0 0,-4z M25,17l4,0 0,4 -4,0 0,-4z M37,17l4,0 0,4 -4,0 0,-4z M45,17l4,0 0,4 -4,0 0,-4z M53,17l4,0 0,4 -4,0 0,-4z M61,17l4,0 0,4 -4,0 0,-4z M65,17l4,0 0,4 -4,0 0,-4z M73,17l4,0 0,4 -4,0 0,-4z M81,17l4,0 0,4 -4,0 0,-4z M85,17l4,0 0,4 -4,0 0,-4z M89,17l4,0 0,4 -4,0 0,-4z M97,17l4,0 0,4 -4,0 0,-4z M1,21l4,0 0,4 -4,0 0,-4z M25,21l4,0 0,4 -4,0 0,-4z M41,21l4,0 0,4 -4,0 0,-4z M45,21l4,0 0,4 -4,0 0,-4z M49,21l4,0 0,4 -4,0 0,-4z M53,21l4,0 0,4 -4,0 0,-4z M57,21l4,0 0,4 -4,0 0,-4z M65,21l4,0 0,4 -4,0 0,-4z M73,21l4,0 0,4 -4,0 0,-4z M97,21l4,0 0,4 -4,0 0,-4z M1,25l4,0 0,4 -4,0 0,-4z M5,25l4,0 0,4 -4,0 0,-4z M9,25l4,0 0,4 -4,0 0,-4z M13,25l4,0 0,4 -4,0 0,-4z M17,25l4,0 0,4 -4,0 0,-4z M21,25l4,0 0,4 -4,0 0,-4z M25,25l4,0 0,4 -4,0 0,-4z M33,25l4,0 0,4 -4,0 0,-4z M41,25l4,0 0,4 -4,0 0,-4z M49,25l4,0 0,4 -4,0 0,-4z M57,25l4,0 0,4 -4,0 0,-4z M65,25l4,0 0,4 -4,0 0,-4z M73,25l4,0 0,4 -4,0 0,-4z M77,25l4,0 0,4 -4,0 0,-4z M81,25l4,0 0,4 -4,0 0,-4z M85,25l4,0 0,4 -4,0 0,-4z M89,25l4,0 0,4 -4,0 0,-4z M93,25l4,0 0,4 -4,0 0,-4z M97,25l4,0 0,4 -4,0 0,-4z M33,29l4,0 0,4 -4,0 0,-4z M41,29l4,0 0,4 -4,0 0,-4z M45,29l4,0 0,4 -4,0 0,-4z M53,29l4,0 0,4 -4,0 0,-4z M61,29l4,0 0,4 -4,0 0,-4z M65,29l4,0 0,4 -4,0 0,-4z M1,33l4,0 0,4 -4,0 0,-4z M25,33l4,0 0,4 -4,0 0,-4z M33,33l4,0 0,4 -4,0 0,-4z M37,33l4,0 0,4 -4,0 0,-4z M41,33l4,0 0,4 -4,0 0,-4z M45,33l4,0 0,4 -4,0 0,-4z M57,33l4,0 0,4 -4,0 0,-4z M69,33l4,0 0,4 -4,0 0,-4z M73,33l4,0 0,4 -4,0 0,-4z M85,33l4,0 0,4 -4,0 0,-4z M89,33l4,0 0,4 -4,0 0,-4z M93,33l4,0 0,4 -4,0 0,-4z M5,37l4,0 0,4 -4,0 0,-4z M9,37l4,0 0,4 -4,0 0,-4z M13,37l4,0 0,4 -4,0 0,-4z M17,37l4,0 0,4 -4,0 0,-4z M41,37l4,0 0,4 -4,0 0,-4z M49,37l4,0 0,4 -4,0 0,-4z M57,37l4,0 0,4 -4,0 0,-4z M73,37l4,0 0,4 -4,0 0,-4z M77,37l4,0 0,4 -4,0 0,-4z M81,37l4,0 0,4 -4,0 0,-4z M85,37l4,0 0,4 -4,0 0,-4z M89,37l4,0 0,4 -4,0 0,-4z M97,37l4,0 0,4 -4,0 0,-4z M1,41l4,0 0,4 -4,0 0,-4z M9,41l4,0 0,4 -4,0 0,-4z M21,41l4,0 0,4 -4,0 0,-4z M25,41l4,0 0,4 -4,0 0,-4z M29,41l4,0 0,4 -4,0 0,-4z M33,41l4,0 0,4 -4,0 0,-4z M45,41l4,0 0,4 -4,0 0,-4z M49,41l4,0 0,4 -4,0 0,-4z M61,41l4,0 0,4 -4,0 0,-4z M69,41l4,0 0,4 -4,0 0,-4z M73,41l4,0 0,4 -4,0 0,-4z M81,41l4,0 0,4 -4,0 0,-4z M85,41l4,0 0,4 -4,0 0,-4z M89,41l4,0 0,4 -4,0 0,-4z M93,41l4,0 0,4 -4,0 0,-4z M97,41l4,0 0,4 -4,0 0,-4z M21,45l4,0 0,4 -4,0 0,-4z M29,45l4,0 0,4 -4,0 0,-4z M33,45l4,0 0,4 -4,0 0,-4z M41,45l4,0 0,4 -4,0 0,-4z M57,45l4,0 0,4 -4,0 0,-4z M61,45l4,0 0,4 -4,0 0,-4z M77,45l4,0 0,4 -4,0 0,-4z M85,45l4,0 0,4 -4,0 0,-4z M93,45l4,0 0,4 -4,0 0,-4z M97,45l4,0 0,4 -4,0 0,-4z M5,49l4,0 0,4 -4,0 0,-4z M17,49l4,0 0,4 -4,0 0,-4z M25,49l4,0 0,4 -4,0 0,-4z M37,49l4,0 0,4 -4,0 0,-4z M53,49l4,0 0,4 -4,0 0,-4z M57,49l4,0 0,4 -4,0 0,-4z M61,49l4,0 0,4 -4,0 0,-4z M73,49l4,0 0,4 -4,0 0,-4z M77,49l4,0 0,4 -4,0 0,-4z M81,49l4,0 0,4 -4,0 0,-4z M85,49l4,0 0,4 -4,0 0,-4z M89,49l4,0 0,4 -4,0 0,-4z M93,49l4,0 0,4 -4,0 0,-4z M97,49l4,0 0,4 -4,0 0,-4z M1,53l4,0 0,4 -4,0 0,-4z M17,53l4,0 0,4 -4,0 0,-4z M29,53l4,0 0,4 -4,0 0,-4z M33,53l4,0 0,4 -4,0 0,-4z M49,53l4,0 0,4 -4,0 0,-4z M53,53l4,0 0,4 -4,0 0,-4z M57,53l4,0 0,4 -4,0 0,-4z M65,53l4,0 0,4 -4,0 0,-4z M73,53l4,0 0,4 -4,0 0,-4z M77,53l4,0 0,4 -4,0 0,-4z M85,53l4,0 0,4 -4,0 0,-4z M97,53l4,0 0,4 -4,0 0,-4z M1,57l4,0 0,4 -4,0 0,-4z M9,57l4,0 0,4 -4,0 0,-4z M25,57l4,0 0,4 -4,0 0,-4z M29,57l4,0 0,4 -4,0 0,-4z M37,57l4,0 0,4 -4,0 0,-4z M41,57l4,0 0,4 -4,0 0,-4z M53,57l4,0 0,4 -4,0 0,-4z M57,57l4,0 0,4 -4,0 0,-4z M61,57l4,0 0,4 -4,0 0,-4z M77,57l4,0 0,4 -4,0 0,-4z M81,57l4,0 0,4 -4,0 0,-4z M93,57l4,0 0,4 -4,0 0,-4z M97,57l4,0 0,4 -4,0 0,-4z M1,61l4,0 0,4 -4,0 0,-4z M9,61l4,0 0,4 -4,0 0,-4z M13,61l4,0 0,4 -4,0 0,-4z M17,61l4,0 0,4 -4,0 0,-4z M21,61l4,0 0,4 -4,0 0,-4z M37,61l4,0 0,4 -4,0 0,-4z M49,61l4,0 0,4 -4,0 0,-4z M53,61l4,0 0,4 -4,0 0,-4z M57,61l4,0 0,4 -4,0 0,-4z M65,61l4,0 0,4 -4,0 0,-4z M69,61l4,0 0,4 -4,0 0,-4z M73,61l4,0 0,4 -4,0 0,-4z M77,61l4,0 0,4 -4,0 0,-4z M85,61l4,0 0,4 -4,0 0,-4z M89,61l4,0 0,4 -4,0 0,-4z M93,61l4,0 0,4 -4,0 0,-4z M1,65l4,0 0,4 -4,0 0,-4z M21,65l4,0 0,4 -4,0 0,-4z M25,65l4,0 0,4 -4,0 0,-4z M33,65l4,0 0,4 -4,0 0,-4z M41,65l4,0 0,4 -4,0 0,-4z M49,65l4,0 0,4 -4,0 0,-4z M57,65l4,0 0,4 -4,0 0,-4z M61,65l4,0 0,4 -4,0 0,-4z M65,65l4,0 0,4 -4,0 0,-4z M69,65l4,0 0,4 -4,0 0,-4z M73,65l4,0 0,4 -4,0 0,-4z M77,65l4,0 0,4 -4,0 0,-4z M81,65l4,0 0,4 -4,0 0,-4z M97,65l4,0 0,4 -4,0 0,-4z M33,69l4,0 0,4 -4,0 0,-4z M37,69l4,0 0,4 -4,0 0,-4z M41,69l4,0 0,4 -4,0 0,-4z M65,69l4,0 0,4 -4,0 0,-4z M81,69l4,0 0,4 -4,0 0,-4z M85,69l4,0 0,4 -4,0 0,-4z M93,69l4,0 0,4 -4,0 0,-4z M97,69l4,0 0,4 -4,0 0,-4z M1,73l4,0 0,4 -4,0 0,-4z M5,73l4,0 0,4 -4,0 0,-4z M9,73l4,0 0,4 -4,0 0,-4z M13,73l4,0 0,4 -4,0 0,-4z M17,73l4,0 0,4 -4,0 0,-4z M21,73l4,0 0,4 -4,0 0,-4z M25,73l4,0 0,4 -4,0 0,-4z M37,73l4,0 0,4 -4,0 0,-4z M41,73l4,0 0,4 -4,0 0,-4z M49,73l4,0 0,4 -4,0 0,-4z M53,73l4,0 0,4 -4,0 0,-4z M57,73l4,0 0,4 -4,0 0,-4z M65,73l4,0 0,4 -4,0 0,-4z M73,73l4,0 0,4 -4,0 0,-4z M81,73l4,0 0,4 -4,0 0,-4z M85,73l4,0 0,4 -4,0 0,-4z M89,73l4,0 0,4 -4,0 0,-4z M97,73l4,0 0,4 -4,0 0,-4z M1,77l4,0 0,4 -4,0 0,-4z M25,77l4,0 0,4 -4,0 0,-4z M37,77l4,0 0,4 -4,0 0,-4z M41,77l4,0 0,4 -4,0 0,-4z M45,77l4,0 0,4 -4,0 0,-4z M57,77l4,0 0,4 -4,0 0,-4z M65,77l4,0 0,4 -4,0 0,-4z M81,77l4,0 0,4 -4,0 0,-4z M85,77l4,0 0,4 -4,0 0,-4z M1,81l4,0 0,4 -4,0 0,-4z M9,81l4,0 0,4 -4,0 0,-4z M13,81l4,0 0,4 -4,0 0,-4z M17,81l4,0 0,4 -4,0 0,-4z M25,81l4,0 0,4 -4,0 0,-4z M37,81l4,0 0,4 -4,0 0,-4z M45,81l4,0 0,4 -4,0 0,-4z M61,81l4,0 0,4 -4,0 0,-4z M65,81l4,0 0,4 -4,0 0,-4z M69,81l4,0 0,4 -4,0 0,-4z M73,81l4,0 0,4 -4,0 0,-4z M77,81l4,0 0,4 -4,0 0,-4z M81,81l4,0 0,4 -4,0 0,-4z M97,81l4,0 0,4 -4,0 0,-4z M1,85l4,0 0,4 -4,0 0,-4z M9,85l4,0 0,4 -4,0 0,-4z M13,85l4,0 0,4 -4,0 0,-4z M17,85l4,0 0,4 -4,0 0,-4z M25,85l4,0 0,4 -4,0 0,-4z M37,85l4,0 0,4 -4,0 0,-4z M49,85l4,0 0,4 -4,0 0,-4z M53,85l4,0 0,4 -4,0 0,-4z M61,85l4,0 0,4 -4,0 0,-4z M65,85l4,0 0,4 -4,0 0,-4z M69,85l4,0 0,4 -4,0 0,-4z M73,85l4,0 0,4 -4,0 0,-4z M81,85l4,0 0,4 -4,0 0,-4z M93,85l4,0 0,4 -4,0 0,-4z M97,85l4,0 0,4 -4,0 0,-4z M1,89l4,0 0,4 -4,0 0,-4z M9,89l4,0 0,4 -4,0 0,-4z M13,89l4,0 0,4 -4,0 0,-4z M17,89l4,0 0,4 -4,0 0,-4z M25,89l4,0 0,4 -4,0 0,-4z M53,89l4,0 0,4 -4,0 0,-4z M57,89l4,0 0,4 -4,0 0,-4z M73,89l4,0 0,4 -4,0 0,-4z M77,89l4,0 0,4 -4,0 0,-4z M97,89l4,0 0,4 -4,0 0,-4z M1,93l4,0 0,4 -4,0 0,-4z M25,93l4,0 0,4 -4,0 0,-4z M37,93l4,0 0,4 -4,0 0,-4z M41,93l4,0 0,4 -4,0 0,-4z M49,93l4,0 0,4 -4,0 0,-4z M53,93l4,0 0,4 -4,0 0,-4z M73,93l4,0 0,4 -4,0 0,-4z M97,93l4,0 0,4 -4,0 0,-4z M1,97l4,0 0,4 -4,0 0,-4z M5,97l4,0 0,4 -4,0 0,-4z M9,97l4,0 0,4 -4,0 0,-4z M13,97l4,0 0,4 -4,0 0,-4z M17,97l4,0 0,4 -4,0 0,-4z M21,97l4,0 0,4 -4,0 0,-4z M25,97l4,0 0,4 -4,0 0,-4z M33,97l4,0 0,4 -4,0 0,-4z M37,97l4,0 0,4 -4,0 0,-4z M41,97l4,0 0,4 -4,0 0,-4z M45,97l4,0 0,4 -4,0 0,-4z M49,97l4,0 0,4 -4,0 0,-4z M53,97l4,0 0,4 -4,0 0,-4z M65,97l4,0 0,4 -4,0 0,-4z M77,97l4,0 0,4 -4,0 0,-4z M81,97l4,0 0,4 -4,0 0,-4z M85,97l4,0 0,4 -4,0 0,-4z M97,97l4,0 0,4 -4,0 0,-4z " stroke="transparent" fill="black"/></svg>